<svg width="25" height="25" viewBox="0 0 25 25" fill="none" xmlns="http://www.w3.org/2000/svg">
<path d="M19.375 9.75C21.6532 9.75 23.5 7.90317 23.5 5.625C23.5 3.34683 21.6532 1.5 19.375 1.5C17.0968 1.5 15.25 3.34683 15.25 5.625C15.25 7.90317 17.0968 9.75 19.375 9.75Z" fill="black" stroke="black" stroke-width="1.5" stroke-linecap="round" stroke-linejoin="round"/>
<path d="M5.625 23.5C7.90317 23.5 9.75 21.6532 9.75 19.375C9.75 17.0968 7.90317 15.25 5.625 15.25C3.34683 15.25 1.5 17.0968 1.5 19.375C1.5 21.6532 3.34683 23.5 5.625 23.5Z" fill="black" stroke="black" stroke-width="1.5" stroke-linecap="round" stroke-linejoin="round"/>
<path d="M15.25 15.25H23.5V22.125C23.5 22.4897 23.3551 22.8394 23.0973 23.0973C22.8394 23.3551 22.4897 23.5 22.125 23.5H16.625C16.2603 23.5 15.9106 23.3551 15.6527 23.0973C15.3949 22.8394 15.25 22.4897 15.25 22.125V15.25ZM1.5 1.5H9.75V8.375C9.75 8.73967 9.60513 9.08941 9.34727 9.34727C9.08941 9.60513 8.73967 9.75 8.375 9.75H2.875C2.51033 9.75 2.16059 9.60513 1.90273 9.34727C1.64487 9.08941 1.5 8.73967 1.5 8.375V1.5Z" fill="black" stroke="black" stroke-width="1.5" stroke-linecap="round" stroke-linejoin="round"/>
</svg>
