<svg width="29" height="29" viewBox="0 0 29 29" fill="none" xmlns="http://www.w3.org/2000/svg">
<path d="M26.5833 15.3056C26.4773 15.3062 26.3722 15.2859 26.2741 15.2458C26.1759 15.2057 26.0866 15.1466 26.0114 15.0719L14.5 3.5525L2.98859 15.0719C2.83449 15.2039 2.63626 15.2729 2.43352 15.265C2.23078 15.2572 2.03846 15.1732 1.895 15.0297C1.75153 14.8862 1.66749 14.6939 1.65966 14.4912C1.65183 14.2884 1.72079 14.0902 1.85276 13.9361L13.9361 1.85278C14.087 1.70274 14.2912 1.61853 14.504 1.61853C14.7168 1.61853 14.921 1.70274 15.0719 1.85278L27.1553 13.9361C27.2661 14.0492 27.3412 14.1925 27.3711 14.348C27.4009 14.5035 27.3843 14.6643 27.3233 14.8105C27.2623 14.9566 27.1595 15.0815 27.0279 15.1695C26.8963 15.2576 26.7417 15.3049 26.5833 15.3056V15.3056Z" fill="#999999"/>
<path d="M12.0834 18.5833H11.3334V19.3333V26.6389H6.44449C6.2161 26.6389 5.99708 26.5482 5.83559 26.3867C5.6741 26.2252 5.58337 26.0061 5.58337 25.7778V16.2841L14.5016 7.33615L23.4167 16.229V25.7778C23.4167 26.0061 23.326 26.2252 23.1645 26.3867C23.003 26.5482 22.784 26.6389 22.5556 26.6389H17.6667V19.3333V18.5833H16.9167H12.0834Z" stroke="#999999" stroke-width="1.5"/>
</svg>
