<svg width="30" height="29" viewBox="0 0 30 29" fill="none" xmlns="http://www.w3.org/2000/svg">
<path fill-rule="evenodd" clip-rule="evenodd" d="M12.9509 22.6733C12.3166 22.6733 11.8343 23.2645 12.1661 23.805C12.7504 24.7571 13.8011 25.392 15.0001 25.392C16.199 25.392 17.2497 24.7571 17.8341 23.805C18.166 23.2645 17.6836 22.6733 17.0493 22.6733C16.6456 22.6733 16.299 22.9391 15.9954 23.2052C15.7297 23.4383 15.3813 23.5795 15.0001 23.5795C14.6188 23.5795 14.2705 23.4383 14.0047 23.2052C13.7013 22.9391 13.3545 22.6733 12.9509 22.6733Z" fill="#242424"/>
<mask id="mask0_0_750" style="mask-type:alpha" maskUnits="userSpaceOnUse" x="4" y="2" width="22" height="20">
<path fill-rule="evenodd" clip-rule="evenodd" d="M24.0625 13.1104C24.0625 9.49948 22.2701 6.12404 19.2788 4.10147L17.7072 3.03884C16.0718 1.93302 13.9282 1.93302 12.2927 3.03884L10.7211 4.10146C7.72978 6.12404 5.93746 9.49947 5.93746 13.1104V15.423C5.19584 16.0868 4.72913 17.0514 4.72913 18.125C4.72913 20.1271 6.3521 21.75 8.35413 21.75H21.6458C23.6479 21.75 25.2708 20.1271 25.2708 18.125C25.2708 17.0514 24.804 16.0868 24.0625 15.423V13.1104Z" fill="white"/>
</mask>
<g mask="url(#mask0_0_750)">
<path d="M19.2788 4.10147L18.2635 5.60295L19.2788 4.10147ZM24.0625 13.1104H25.875H24.0625ZM17.7072 3.03883L18.7225 1.53735L17.7072 3.03883ZM12.2927 3.03883L11.2775 1.53735L12.2927 3.03883ZM10.7211 4.10145L11.7363 5.60295L10.7211 4.10145ZM5.93746 13.1104H7.74996H5.93746ZM5.93746 15.423L7.14624 16.7736L7.74996 16.2332V15.423H5.93746ZM24.0625 15.423H22.25V16.2332L22.8536 16.7736L24.0625 15.423ZM18.2635 5.60295C20.7563 7.28842 22.25 10.1013 22.25 13.1104H25.875C25.875 8.89766 23.7839 4.95964 20.294 2.59997L18.2635 5.60295ZM16.692 4.54032L18.2635 5.60295L20.294 2.59997L18.7225 1.53735L16.692 4.54032ZM13.3079 4.54032C14.3301 3.84919 15.6699 3.84919 16.692 4.54032L18.7225 1.53735C16.4736 0.0168484 13.5263 0.0168479 11.2775 1.53735L13.3079 4.54032ZM11.7363 5.60295L13.3079 4.54032L11.2775 1.53735L9.70586 2.59997L11.7363 5.60295ZM7.74996 13.1104C7.74996 10.1013 9.24356 7.28842 11.7363 5.60295L9.70586 2.59997C6.21599 4.95964 4.12496 8.89766 4.12496 13.1104H7.74996ZM7.74996 15.423V13.1104H4.12496V15.423H7.74996ZM6.54163 18.125C6.54163 17.5884 6.77254 17.108 7.14624 16.7736L4.72868 14.0725C3.61915 15.0655 2.91663 16.5144 2.91663 18.125H6.54163ZM8.35413 19.9375C7.35311 19.9375 6.54163 19.126 6.54163 18.125H2.91663C2.91663 21.128 5.35108 23.5625 8.35413 23.5625V19.9375ZM21.6458 19.9375H8.35413V23.5625H21.6458V19.9375ZM23.4583 18.125C23.4583 19.126 22.6468 19.9375 21.6458 19.9375V23.5625C24.6489 23.5625 27.0833 21.128 27.0833 18.125H23.4583ZM22.8536 16.7736C23.2274 17.108 23.4583 17.5884 23.4583 18.125H27.0833C27.0833 16.5144 26.3808 15.0655 25.2713 14.0725L22.8536 16.7736ZM22.25 13.1104V15.423H25.875V13.1104H22.25Z" fill="#242424"/>
</g>
</svg>
