<svg width="21" height="25" viewBox="0 0 21 25" fill="none" xmlns="http://www.w3.org/2000/svg">
<path d="M2.80857 25C2.15048 25 1.60143 24.7861 1.16143 24.3583C0.721428 23.9306 0.500952 23.3968 0.5 22.7569V7.79861C0.5 7.15972 0.720476 6.62639 1.16143 6.19861C1.60238 5.77083 2.15143 5.55648 2.80857 5.55555H5.5V4.86111C5.5 3.51111 5.98619 2.36343 6.95857 1.41806C7.93095 0.472685 9.11143 0 10.5 0C11.8886 0 13.069 0.472685 14.0414 1.41806C15.0138 2.36343 15.5 3.51111 15.5 4.86111V5.55555H18.1929C18.85 5.55555 19.3986 5.76991 19.8386 6.19861C20.2786 6.62731 20.499 7.16111 20.5 7.8V22.7569C20.5 23.3958 20.2795 23.9296 19.8386 24.3583C19.3976 24.787 18.849 25.0009 18.1929 25H2.80857ZM6.92857 5.55555H14.0714V4.86111C14.0714 3.88333 13.7276 3.06019 13.04 2.39167C12.3524 1.72315 11.5057 1.38889 10.5 1.38889C9.49429 1.38889 8.64762 1.72315 7.96 2.39167C7.27238 3.06019 6.92857 3.88333 6.92857 4.86111V5.55555ZM14.7857 11.1111C14.9895 11.1111 15.1595 11.0449 15.2957 10.9125C15.4319 10.7801 15.5 10.6148 15.5 10.4167V6.94444H14.0714V10.4167C14.0714 10.6148 14.1395 10.7801 14.2757 10.9125C14.4119 11.0449 14.5819 11.1111 14.7857 11.1111ZM6.21429 11.1111C6.4181 11.1111 6.5881 11.0449 6.72429 10.9125C6.86048 10.7801 6.92857 10.6148 6.92857 10.4167V6.94444H5.5V10.4167C5.5 10.6148 5.56809 10.7801 5.70429 10.9125C5.84048 11.0449 6.01048 11.1111 6.21429 11.1111Z" fill="black"/>
</svg>
