<svg width="28" height="21" viewBox="0 0 28 21" fill="none" xmlns="http://www.w3.org/2000/svg">
<path d="M28 1.16663V10.4997C28 10.8091 27.8946 11.1058 27.7071 11.3246C27.5196 11.5434 27.2652 11.6663 27 11.6663C26.7348 11.6663 26.4805 11.5434 26.2929 11.3246C26.1054 11.1058 26 10.8091 26 10.4997V3.98258L15.7077 15.9916C15.6149 16.1001 15.5046 16.1861 15.3832 16.2448C15.2618 16.3035 15.1317 16.3337 15.0003 16.3337C14.8688 16.3337 14.7387 16.3035 14.6173 16.2448C14.4959 16.1861 14.3856 16.1001 14.2928 15.9916L10.0004 10.9824L1.70802 20.6581C1.52039 20.877 1.26589 21 1.00054 21C0.735178 21 0.480687 20.877 0.29305 20.6581C0.105413 20.4392 0 20.1423 0 19.8327C0 19.5231 0.105413 19.2262 0.29305 19.0073L9.29287 8.50765C9.38574 8.39918 9.49603 8.31314 9.61742 8.25443C9.73882 8.19572 9.86894 8.1655 10.0004 8.1655C10.1318 8.1655 10.2619 8.19572 10.3833 8.25443C10.5047 8.31314 10.615 8.39918 10.7078 8.50765L15.0003 13.5169L24.5863 2.33326H19.0002C18.735 2.33326 18.4806 2.21035 18.2931 1.99156C18.1056 1.77278 18.0002 1.47604 18.0002 1.16663C18.0002 0.857221 18.1056 0.560484 18.2931 0.341698C18.4806 0.122913 18.735 0 19.0002 0H27C27.2652 0 27.5196 0.122913 27.7071 0.341698C27.8946 0.560484 28 0.857221 28 1.16663Z" fill="#999999"/>
</svg>
