<svg xmlns="http://www.w3.org/2000/svg" width="24" height="24" fill="#262A39" viewBox="0 0 24 24">
    <path fill-rule="evenodd" clip-rule="evenodd" d="M11.998 4.918c1.07-1.222 2.597-1.936 4.216-1.918C19.466 3.002 22 5.809 22 9.16c0 1.354-.5 2.673-1.23 3.883-.73 1.214-1.717 2.362-2.755 3.388-2.078 2.052-4.438 3.686-5.605 4.447a.75.75 0 0 1-.82 0c-1.167-.76-3.527-2.395-5.605-4.447-1.038-1.026-2.025-2.175-2.756-3.388C2.501 11.833 2 10.513 2 9.16 2 5.809 4.534 3.002 7.786 3c1.621-.018 3.14.698 4.212 1.918Zm-.642 1.657C10.564 5.249 9.215 4.483 7.8 4.5H7.79C5.464 4.5 3.5 6.533 3.5 9.16c0 .986.368 2.036 1.014 3.11.645 1.07 1.54 2.12 2.526 3.094 1.757 1.735 3.746 3.171 4.96 3.987 1.214-.816 3.203-2.252 4.96-3.987.987-.974 1.881-2.024 2.526-3.095.646-1.073 1.014-2.123 1.014-3.109 0-2.627-1.964-4.66-4.29-4.66h-.009c-1.418-.017-2.775.75-3.555 2.072a.75.75 0 0 1-1.29.003Z"/>
</svg>