<svg width="19" height="18" viewBox="0 0 19 18" fill="none" xmlns="http://www.w3.org/2000/svg">
<path d="M8.45445 16.2059L8.45372 16.2053C5.99745 14.0332 3.99949 12.2632 2.60976 10.6051C1.2251 8.95311 0.5 7.4759 0.5 5.8981C0.5 3.32393 2.56262 1.30273 5.225 1.30273C6.73146 1.30273 8.18218 1.98917 9.12466 3.06005L9.5 3.48652L9.87534 3.06005C10.8178 1.98917 12.2685 1.30273 13.775 1.30273C16.4374 1.30273 18.5 3.32393 18.5 5.8981C18.5 7.4759 17.7749 8.95311 16.3902 10.6051C15.0005 12.2632 13.0026 14.0332 10.5463 16.2053L10.5456 16.2059L9.5 17.1341L8.45445 16.2059Z" stroke="black"/>
</svg>
