<svg width="21" height="19" viewBox="0 0 21 19" fill="none" xmlns="http://www.w3.org/2000/svg">
<path d="M6.82418 12.9437C6.89315 12.9906 6.97166 13.0248 7.05523 13.0442C7.13879 13.0636 7.22577 13.0679 7.31118 13.0569C7.39659 13.0459 7.47876 13.0197 7.55299 12.9799C7.62721 12.9401 7.69204 12.8875 7.74375 12.825C8.14108 12.3457 8.6563 11.9566 9.2486 11.6887C9.84091 11.4207 10.494 11.2812 11.1562 11.2812C11.8185 11.2812 12.4716 11.4207 13.0639 11.6887C13.6562 11.9566 14.1714 12.3457 14.5688 12.825C14.6205 12.8874 14.6852 12.9399 14.7594 12.9797C14.8336 13.0194 14.9156 13.0455 15.0009 13.0565C15.0863 13.0676 15.1731 13.0633 15.2566 13.0439C15.3401 13.0246 15.4186 12.9905 15.4875 12.9437C15.5564 12.897 15.6145 12.8384 15.6584 12.7713C15.7023 12.7042 15.7312 12.6299 15.7434 12.5527C15.7556 12.4755 15.7509 12.3969 15.7295 12.3214C15.7081 12.2459 15.6705 12.1749 15.6187 12.1125C15.0376 11.4077 14.2627 10.8527 13.3711 10.5027C13.8597 10.099 14.2021 9.57117 14.3532 8.98833C14.5044 8.4055 14.4572 7.79494 14.2179 7.23679C13.9787 6.67864 13.5585 6.19897 13.0126 5.86074C12.4666 5.52251 11.8204 5.34151 11.1587 5.34151C10.497 5.34151 9.85082 5.52251 9.30486 5.86074C8.75891 6.19897 8.33874 6.67864 8.09948 7.23679C7.86022 7.79494 7.81307 8.4055 7.9642 8.98833C8.11532 9.57117 8.45768 10.099 8.94633 10.5027C8.05291 10.852 7.27626 11.4071 6.69375 12.1125C6.58923 12.2384 6.54426 12.3967 6.56872 12.5526C6.59318 12.7084 6.68507 12.8492 6.82418 12.9437ZM9.1875 8.3125C9.1875 7.9602 9.30297 7.61582 9.51929 7.32289C9.73562 7.02997 10.0431 6.80166 10.4028 6.66684C10.7626 6.53202 11.1584 6.49675 11.5403 6.56548C11.9222 6.63421 12.273 6.80385 12.5484 7.05297C12.8237 7.30208 13.0112 7.61947 13.0872 7.965C13.1631 8.31052 13.1241 8.66867 12.9751 8.99415C12.8261 9.31964 12.5738 9.59783 12.25 9.79356C11.9263 9.98928 11.5456 10.0938 11.1562 10.0938C10.6341 10.0938 10.1333 9.90608 9.76413 9.57203C9.39492 9.23799 9.1875 8.78492 9.1875 8.3125ZM17.0625 1.78125H5.25C4.9019 1.78125 4.56806 1.90636 4.32192 2.12906C4.07578 2.35176 3.9375 2.65381 3.9375 2.96875V4.75H2.625C2.45095 4.75 2.28403 4.81256 2.16096 4.92391C2.03789 5.03526 1.96875 5.18628 1.96875 5.34375C1.96875 5.50122 2.03789 5.65224 2.16096 5.76359C2.28403 5.87494 2.45095 5.9375 2.625 5.9375H3.9375V8.90625H2.625C2.45095 8.90625 2.28403 8.96881 2.16096 9.08016C2.03789 9.1915 1.96875 9.34253 1.96875 9.5C1.96875 9.65747 2.03789 9.8085 2.16096 9.91985C2.28403 10.0312 2.45095 10.0938 2.625 10.0938H3.9375V13.0625H2.625C2.45095 13.0625 2.28403 13.1251 2.16096 13.2364C2.03789 13.3478 1.96875 13.4988 1.96875 13.6562C1.96875 13.8137 2.03789 13.9647 2.16096 14.0761C2.28403 14.1874 2.45095 14.25 2.625 14.25H3.9375V16.0312C3.9375 16.3462 4.07578 16.6482 4.32192 16.8709C4.56806 17.0936 4.9019 17.2188 5.25 17.2188H17.0625C17.4106 17.2188 17.7444 17.0936 17.9906 16.8709C18.2367 16.6482 18.375 16.3462 18.375 16.0312V2.96875C18.375 2.65381 18.2367 2.35176 17.9906 2.12906C17.7444 1.90636 17.4106 1.78125 17.0625 1.78125ZM17.0625 16.0312H5.25V2.96875H17.0625V16.0312Z" fill="black"/>
</svg>
