<svg width="31" height="31" viewBox="0 0 31 31" fill="none" xmlns="http://www.w3.org/2000/svg">
<path d="M11.625 23.25C12.6951 23.25 13.5625 24.1174 13.5625 25.1875C13.5625 26.2576 12.6951 27.125 11.625 27.125C10.5549 27.125 9.6875 26.2576 9.6875 25.1875C9.6875 24.1174 10.5549 23.25 11.625 23.25Z" stroke="#1B1B1B" stroke-width="1.8125"/>
<path d="M20.666 23.25C21.7361 23.25 22.6035 24.1174 22.6035 25.1875C22.6035 26.2576 21.7361 27.125 20.666 27.125C19.596 27.125 18.7285 26.2576 18.7285 25.1875C18.7285 24.1174 19.596 23.25 20.666 23.25Z" stroke="#1B1B1B" stroke-width="1.8125"/>
<path d="M7.42773 15.5C7.42773 13.6459 7.42979 12.3528 7.56097 11.3772C7.68839 10.4294 7.92147 9.92745 8.27896 9.56997C8.63644 9.21249 9.13834 8.97941 10.0861 8.85199C11.0618 8.7208 12.3549 8.71875 14.209 8.71875H17.977C20.1301 8.71875 21.6408 8.72106 22.7637 8.88043C23.8597 9.03598 24.4072 9.31952 24.7689 9.74648C25.1305 10.1734 25.3203 10.7602 25.2936 11.8668C25.2662 13.0005 25.02 14.4911 24.6661 16.6148C24.4042 18.1858 24.2208 19.2753 23.9777 20.092C23.7424 20.8826 23.4824 21.301 23.1383 21.5925C22.794 21.8841 22.3387 22.0717 21.5201 22.1739C20.6746 22.2794 19.5698 22.2812 17.977 22.2812H14.209C12.3549 22.2812 11.0618 22.2792 10.0861 22.1481C9.13834 22.0206 8.63644 21.7876 8.27896 21.43C7.92147 21.0725 7.68839 20.5707 7.56097 19.6229C7.42979 18.6471 7.42773 17.3541 7.42773 15.5Z" stroke="#1B1B1B" stroke-width="1.8125"/>
<path d="M7.42643 14.8542V6.45833C7.42643 5.0316 6.26984 3.875 4.8431 3.875H3.22852" stroke="#1B1B1B" stroke-width="1.8125" stroke-linecap="round"/>
</svg>
