<svg width="17" height="17" viewBox="0 0 17 17" fill="none" xmlns="http://www.w3.org/2000/svg">
<path d="M5.48885 11.5357L11.5603 5.4643M0.607422 13.3572C0.607421 13.6788 0.735021 13.9873 0.962219 14.2149C1.18942 14.4426 1.49765 14.5708 1.81928 14.5714H15.1813C15.5029 14.5708 15.8111 14.4426 16.0383 14.2149C16.2655 13.9873 16.3931 13.6788 16.3931 13.3572V10.8873C15.8688 10.7451 15.4059 10.4343 15.0759 10.0028C14.7458 9.57137 14.567 9.04325 14.567 8.50002C14.567 7.95679 14.7458 7.42866 15.0759 6.99719C15.4059 6.56572 15.8688 6.2549 16.3931 6.11273V3.64287C16.3931 3.32125 16.2655 3.01276 16.0383 2.7851C15.8111 2.55745 15.5029 2.42923 15.1813 2.42859H1.81928C1.49765 2.42923 1.18942 2.55745 0.962219 2.7851C0.735021 3.01276 0.607421 3.32125 0.607422 3.64287V6.10787C1.1359 6.24687 1.60348 6.55696 1.93714 6.98973C2.27079 7.42249 2.45175 7.95356 2.45175 8.50002C2.45175 9.04647 2.27079 9.57754 1.93714 10.0103C1.60348 10.4431 1.1359 10.7532 0.607422 10.8922V13.3572Z" stroke="black" stroke-linecap="round" stroke-linejoin="round"/>
<path d="M6.09542 6.67864C6.25645 6.67864 6.41088 6.61467 6.52474 6.50081C6.6386 6.38695 6.70257 6.23252 6.70257 6.0715C6.70257 5.91047 6.6386 5.75604 6.52474 5.64218C6.41088 5.52832 6.25645 5.46436 6.09542 5.46436C5.9344 5.46436 5.77997 5.52832 5.66611 5.64218C5.55225 5.75604 5.48828 5.91047 5.48828 6.0715C5.48828 6.23252 5.55225 6.38695 5.66611 6.50081C5.77997 6.61467 5.9344 6.67864 6.09542 6.67864ZM10.9526 11.5358C11.1136 11.5358 11.268 11.4718 11.3819 11.358C11.4957 11.2441 11.5597 11.0897 11.5597 10.9286C11.5597 10.7676 11.4957 10.6132 11.3819 10.4993C11.268 10.3855 11.1136 10.3215 10.9526 10.3215C10.7915 10.3215 10.6371 10.3855 10.5233 10.4993C10.4094 10.6132 10.3454 10.7676 10.3454 10.9286C10.3454 11.0897 10.4094 11.2441 10.5233 11.358C10.6371 11.4718 10.7915 11.5358 10.9526 11.5358Z" stroke="black" stroke-linecap="round" stroke-linejoin="round"/>
</svg>
