<svg width="19" height="19" viewBox="0 0 19 19" fill="none" xmlns="http://www.w3.org/2000/svg">
<rect width="19" height="19" rx="9.5" fill="#F8D9DB"/>
<path d="M5.1 6.75H4.85V7V8.27V8.42122L4.98393 8.49142C5.28138 8.64734 5.52542 8.87016 5.69379 9.13511C5.86201 9.39982 5.94939 9.69805 5.94939 10C5.94939 10.302 5.86201 10.6002 5.69379 10.8649C5.52542 11.1298 5.28138 11.3527 4.98393 11.5086L4.85 11.5788V11.73V13V13.25H5.1H13.9H14.15V13V11.73V11.5788L14.0161 11.5086C13.7186 11.3527 13.4746 11.1298 13.3062 10.8649C13.138 10.6002 13.0506 10.302 13.0506 10C13.0506 9.69805 13.138 9.39982 13.3062 9.13511C13.4746 8.87016 13.7186 8.64734 14.0161 8.49142L14.15 8.42122V8.27V7V6.75H13.9H5.1ZM7.67165 11.4L11.04 8.33787L11.3283 8.6L7.96 11.6621L7.67165 11.4ZM5.1 6.25H13.9C14.3954 6.25 14.75 6.60496 14.75 7V8.7716C14.4905 8.81682 14.2474 8.93206 14.054 9.10791C13.7986 9.34009 13.65 9.66037 13.65 10C13.65 10.3396 13.7986 10.6599 14.054 10.8921C14.2474 11.0679 14.4905 11.1832 14.75 11.2284V13C14.75 13.395 14.3954 13.75 13.9 13.75H5.1C4.86728 13.75 4.64833 13.6657 4.49035 13.5221C4.33316 13.3792 4.25 13.1908 4.25 13V11.2285C4.86334 11.1222 5.35 10.6312 5.35 10C5.35 9.66037 5.20138 9.34009 4.94599 9.10791C4.75255 8.93206 4.50946 8.81682 4.25 8.7716V7C4.25 6.80919 4.33316 6.62077 4.49035 6.47788C4.64833 6.33426 4.86728 6.25 5.1 6.25ZM8.125 8.25C8.46638 8.25 8.7 8.49496 8.7 8.75C8.7 9.00504 8.46638 9.25 8.125 9.25C7.78362 9.25 7.55 9.00504 7.55 8.75C7.55 8.49496 7.78362 8.25 8.125 8.25ZM10.875 10.75C11.2164 10.75 11.45 10.995 11.45 11.25C11.45 11.505 11.2164 11.75 10.875 11.75C10.5336 11.75 10.3 11.505 10.3 11.25C10.3 10.995 10.5336 10.75 10.875 10.75Z" fill="black" stroke="black" stroke-width="0.5"/>
</svg>
