<svg width="20" height="20" viewBox="0 0 20 20" fill="none" xmlns="http://www.w3.org/2000/svg">
<g clip-path="url(#clip0_502_2998)">
<path d="M14.1663 9.83748C14.1663 9.54915 14.1663 9.40498 14.2097 9.27665C14.3355 8.90331 14.668 8.75915 15.0013 8.60748C15.3747 8.43665 15.5613 8.35165 15.7472 8.33665C15.9572 8.31998 16.168 8.36498 16.348 8.46581C16.5863 8.59915 16.753 8.85415 16.923 9.06081C17.7088 10.0158 18.1022 10.4933 18.2455 11.0191C18.3622 11.4441 18.3622 11.8891 18.2455 12.3133C18.0363 13.0816 17.3738 13.725 16.883 14.3216C16.6322 14.6258 16.5063 14.7783 16.348 14.8675C16.1649 14.969 15.9558 15.014 15.7472 14.9966C15.5613 14.9816 15.3747 14.8966 15.0005 14.7258C14.6672 14.5741 14.3355 14.43 14.2097 14.0566C14.1663 13.9283 14.1663 13.7841 14.1663 13.4966V9.83748ZM5.83301 9.83748C5.83301 9.47415 5.82301 9.14831 5.52968 8.89331C5.42301 8.80081 5.28135 8.73665 4.99885 8.60748C4.62468 8.43748 4.43801 8.35165 4.25218 8.33665C3.69635 8.29165 3.39718 8.67165 3.07718 9.06165C2.29051 10.0158 1.89718 10.4933 1.75301 11.02C1.63702 11.4436 1.63702 11.8906 1.75301 12.3141C1.96301 13.0816 2.62635 13.7258 3.11635 14.3216C3.42551 14.6966 3.72135 15.0391 4.25218 14.9966C4.43801 14.9816 4.62468 14.8966 4.99885 14.7258C5.28218 14.5975 5.42301 14.5325 5.52968 14.44C5.82301 14.185 5.83301 13.8591 5.83301 13.4966V9.83748Z" stroke="black" stroke-width="1.5" stroke-linecap="round" stroke-linejoin="round"/>
<path d="M16.6673 8.74996V7.49996C16.6673 4.27829 13.6823 1.66663 10.0007 1.66663C6.31898 1.66663 3.33398 4.27829 3.33398 7.49996V8.74996M16.6673 14.5833C16.6673 18.3333 13.334 18.3333 10.0007 18.3333" stroke="black" stroke-width="1.5" stroke-linecap="round" stroke-linejoin="round"/>
</g>
<defs>
<clipPath id="clip0_502_2998">
<rect width="20" height="20" fill="white"/>
</clipPath>
</defs>
</svg>
