<svg width="20" height="19" viewBox="0 0 20 19" fill="none" xmlns="http://www.w3.org/2000/svg">
<path d="M16.3333 3.9585C16.5433 3.9585 16.7447 4.0419 16.8931 4.19037C17.0416 4.33884 17.125 4.5402 17.125 4.75016C17.125 4.96013 17.0416 5.16149 16.8931 5.30996C16.7447 5.45842 16.5433 5.54183 16.3333 5.54183H15.5417L15.5393 5.59804L14.8007 15.9459C14.7722 16.3454 14.5935 16.7192 14.3004 16.9922C14.0074 17.2651 13.6218 17.4168 13.2213 17.4168H6.77792C6.37744 17.4168 5.99184 17.2651 5.69878 16.9922C5.40572 16.7192 5.22698 16.3454 5.19854 15.9459L4.45992 5.59883L4.45833 5.54183H3.66667C3.4567 5.54183 3.25534 5.45842 3.10687 5.30996C2.95841 5.16149 2.875 4.96013 2.875 4.75016C2.875 4.5402 2.95841 4.33884 3.10687 4.19037C3.25534 4.0419 3.4567 3.9585 3.66667 3.9585H16.3333ZM13.956 5.54183H6.04404L6.77871 15.8335H13.2213L13.956 5.54183ZM11.5833 1.5835C11.7933 1.5835 11.9947 1.6669 12.1431 1.81537C12.2916 1.96384 12.375 2.1652 12.375 2.37516C12.375 2.58513 12.2916 2.78649 12.1431 2.93496C11.9947 3.08342 11.7933 3.16683 11.5833 3.16683H8.41667C8.2067 3.16683 8.00534 3.08342 7.85687 2.93496C7.70841 2.78649 7.625 2.58513 7.625 2.37516C7.625 2.1652 7.70841 1.96384 7.85687 1.81537C8.00534 1.6669 8.2067 1.5835 8.41667 1.5835H11.5833Z" fill="black"/>
</svg>
