<svg width="113" height="44" viewBox="0 0 113 44" fill="none" xmlns="http://www.w3.org/2000/svg">
<rect width="112.378" height="43.4189" rx="6.81081" fill="#FB818C"/>
<rect x="0.425676" y="0.425676" width="111.527" height="42.5676" rx="6.38513" stroke="black" stroke-opacity="0.2" stroke-width="0.851351"/>
<path d="M16.796 11.4295V13.1335H19.544V14.7175H16.796V16.5655H19.904V18.2095H14.744V9.78547H19.904V11.4295H16.796ZM25.1962 18.2095L23.9122 16.3495L22.8322 18.2095H20.6122L22.8202 14.7895L20.5522 11.5135H22.8562L24.1402 13.3615L25.2202 11.5135H27.4402L25.1962 14.8855L27.5002 18.2095H25.1962ZM30.3429 12.4615C30.5429 12.1495 30.8189 11.8975 31.1709 11.7055C31.5229 11.5135 31.9349 11.4175 32.4069 11.4175C32.9589 11.4175 33.4589 11.5575 33.9069 11.8375C34.3549 12.1175 34.7069 12.5175 34.9629 13.0375C35.2269 13.5575 35.3589 14.1615 35.3589 14.8495C35.3589 15.5375 35.2269 16.1455 34.9629 16.6735C34.7069 17.1935 34.3549 17.5975 33.9069 17.8855C33.4589 18.1655 32.9589 18.3055 32.4069 18.3055C31.9429 18.3055 31.5309 18.2095 31.1709 18.0175C30.8189 17.8255 30.5429 17.5775 30.3429 17.2735V21.4015H28.2909V11.5135H30.3429V12.4615ZM33.2709 14.8495C33.2709 14.3375 33.1269 13.9375 32.8389 13.6495C32.5589 13.3535 32.2109 13.2055 31.7949 13.2055C31.3869 13.2055 31.0389 13.3535 30.7509 13.6495C30.4709 13.9455 30.3309 14.3495 30.3309 14.8615C30.3309 15.3735 30.4709 15.7775 30.7509 16.0735C31.0389 16.3695 31.3869 16.5175 31.7949 16.5175C32.2029 16.5175 32.5509 16.3695 32.8389 16.0735C33.1269 15.7695 33.2709 15.3615 33.2709 14.8495ZM38.4874 9.32947V18.2095H36.4354V9.32947H38.4874ZM43.0225 18.3055C42.3665 18.3055 41.7745 18.1655 41.2465 17.8855C40.7265 17.6055 40.3145 17.2055 40.0105 16.6855C39.7145 16.1655 39.5665 15.5575 39.5665 14.8615C39.5665 14.1735 39.7185 13.5695 40.0225 13.0495C40.3265 12.5215 40.7425 12.1175 41.2705 11.8375C41.7985 11.5575 42.3905 11.4175 43.0465 11.4175C43.7025 11.4175 44.2945 11.5575 44.8225 11.8375C45.3505 12.1175 45.7665 12.5215 46.0705 13.0495C46.3745 13.5695 46.5265 14.1735 46.5265 14.8615C46.5265 15.5495 46.3705 16.1575 46.0585 16.6855C45.7545 17.2055 45.3345 17.6055 44.7985 17.8855C44.2705 18.1655 43.6785 18.3055 43.0225 18.3055ZM43.0225 16.5295C43.4145 16.5295 43.7465 16.3855 44.0185 16.0975C44.2985 15.8095 44.4385 15.3975 44.4385 14.8615C44.4385 14.3255 44.3025 13.9135 44.0305 13.6255C43.7665 13.3375 43.4385 13.1935 43.0465 13.1935C42.6465 13.1935 42.3145 13.3375 42.0505 13.6255C41.7865 13.9055 41.6545 14.3175 41.6545 14.8615C41.6545 15.3975 41.7825 15.8095 42.0385 16.0975C42.3025 16.3855 42.6305 16.5295 43.0225 16.5295ZM49.6671 12.6295C49.9071 12.2615 50.2071 11.9735 50.5671 11.7655C50.9271 11.5495 51.3271 11.4415 51.7671 11.4415V13.6135H51.2031C50.6911 13.6135 50.3071 13.7255 50.0511 13.9495C49.7951 14.1655 49.6671 14.5495 49.6671 15.1015V18.2095H47.6151V11.5135H49.6671V12.6295ZM59.0599 14.7535C59.0599 14.9455 59.0479 15.1455 59.0239 15.3535H54.3799C54.4119 15.7695 54.5439 16.0895 54.7759 16.3135C55.0159 16.5295 55.3079 16.6375 55.6519 16.6375C56.1639 16.6375 56.5199 16.4215 56.7199 15.9895H58.9039C58.7919 16.4295 58.5879 16.8255 58.2919 17.1775C58.0039 17.5295 57.6399 17.8055 57.1999 18.0055C56.7599 18.2055 56.2679 18.3055 55.7239 18.3055C55.0679 18.3055 54.4839 18.1655 53.9719 17.8855C53.4599 17.6055 53.0599 17.2055 52.7719 16.6855C52.4839 16.1655 52.3399 15.5575 52.3399 14.8615C52.3399 14.1655 52.4799 13.5575 52.7599 13.0375C53.0479 12.5175 53.4479 12.1175 53.9599 11.8375C54.4719 11.5575 55.0599 11.4175 55.7239 11.4175C56.3719 11.4175 56.9479 11.5535 57.4519 11.8255C57.9559 12.0975 58.3479 12.4855 58.6279 12.9895C58.9159 13.4935 59.0599 14.0815 59.0599 14.7535ZM56.9599 14.2135C56.9599 13.8615 56.8399 13.5815 56.5999 13.3735C56.3599 13.1655 56.0599 13.0615 55.6999 13.0615C55.3559 13.0615 55.0639 13.1615 54.8239 13.3615C54.5919 13.5615 54.4479 13.8455 54.3919 14.2135H56.9599ZM17.792 37.2935C17.176 37.2935 16.624 37.1935 16.136 36.9935C15.648 36.7935 15.256 36.4975 14.96 36.1055C14.672 35.7135 14.52 35.2415 14.504 34.6895H16.688C16.72 35.0015 16.828 35.2415 17.012 35.4095C17.196 35.5695 17.436 35.6495 17.732 35.6495C18.036 35.6495 18.276 35.5815 18.452 35.4455C18.628 35.3015 18.716 35.1055 18.716 34.8575C18.716 34.6495 18.644 34.4775 18.5 34.3415C18.364 34.2055 18.192 34.0935 17.984 34.0055C17.784 33.9175 17.496 33.8175 17.12 33.7055C16.576 33.5375 16.132 33.3695 15.788 33.2015C15.444 33.0335 15.148 32.7855 14.9 32.4575C14.652 32.1295 14.528 31.7015 14.528 31.1735C14.528 30.3895 14.812 29.7775 15.38 29.3375C15.948 28.8895 16.688 28.6655 17.6 28.6655C18.528 28.6655 19.276 28.8895 19.844 29.3375C20.412 29.7775 20.716 30.3935 20.756 31.1855H18.536C18.52 30.9135 18.42 30.7015 18.236 30.5495C18.052 30.3895 17.816 30.3095 17.528 30.3095C17.28 30.3095 17.08 30.3775 16.928 30.5135C16.776 30.6415 16.7 30.8295 16.7 31.0775C16.7 31.3495 16.828 31.5615 17.084 31.7135C17.34 31.8655 17.74 32.0295 18.284 32.2055C18.828 32.3895 19.268 32.5655 19.604 32.7335C19.948 32.9015 20.244 33.1455 20.492 33.4655C20.74 33.7855 20.864 34.1975 20.864 34.7015C20.864 35.1815 20.74 35.6175 20.492 36.0095C20.252 36.4015 19.9 36.7135 19.436 36.9455C18.972 37.1775 18.424 37.2935 17.792 37.2935ZM26.2428 30.4415C27.0108 30.4415 27.6268 30.6975 28.0908 31.2095C28.5548 31.7135 28.7868 32.4095 28.7868 33.2975V37.2095H26.7468V33.5735C26.7468 33.1255 26.6308 32.7775 26.3988 32.5295C26.1668 32.2815 25.8548 32.1575 25.4628 32.1575C25.0708 32.1575 24.7588 32.2815 24.5268 32.5295C24.2948 32.7775 24.1788 33.1255 24.1788 33.5735V37.2095H22.1268V28.3295H24.1788V31.4135C24.3868 31.1175 24.6708 30.8815 25.0308 30.7055C25.3908 30.5295 25.7948 30.4415 26.2428 30.4415ZM33.2608 37.3055C32.6048 37.3055 32.0128 37.1655 31.4848 36.8855C30.9648 36.6055 30.5528 36.2055 30.2488 35.6855C29.9528 35.1655 29.8048 34.5575 29.8048 33.8615C29.8048 33.1735 29.9568 32.5695 30.2607 32.0495C30.5648 31.5215 30.9808 31.1175 31.5088 30.8375C32.0368 30.5575 32.6288 30.4175 33.2848 30.4175C33.9408 30.4175 34.5328 30.5575 35.0608 30.8375C35.5888 31.1175 36.0048 31.5215 36.3088 32.0495C36.6128 32.5695 36.7648 33.1735 36.7648 33.8615C36.7648 34.5495 36.6088 35.1575 36.2968 35.6855C35.9928 36.2055 35.5728 36.6055 35.0368 36.8855C34.5088 37.1655 33.9168 37.3055 33.2608 37.3055ZM33.2608 35.5295C33.6528 35.5295 33.9848 35.3855 34.2568 35.0975C34.5368 34.8095 34.6768 34.3975 34.6768 33.8615C34.6768 33.3255 34.5408 32.9135 34.2688 32.6255C34.0048 32.3375 33.6768 32.1935 33.2848 32.1935C32.8848 32.1935 32.5528 32.3375 32.2888 32.6255C32.0248 32.9055 31.8928 33.3175 31.8928 33.8615C31.8928 34.3975 32.0208 34.8095 32.2768 35.0975C32.5408 35.3855 32.8688 35.5295 33.2608 35.5295ZM39.9054 31.4615C40.1054 31.1495 40.3814 30.8975 40.7334 30.7055C41.0854 30.5135 41.4974 30.4175 41.9694 30.4175C42.5214 30.4175 43.0214 30.5575 43.4694 30.8375C43.9174 31.1175 44.2694 31.5175 44.5254 32.0375C44.7894 32.5575 44.9214 33.1615 44.9214 33.8495C44.9214 34.5375 44.7894 35.1455 44.5254 35.6735C44.2694 36.1935 43.9174 36.5975 43.4694 36.8855C43.0214 37.1655 42.5214 37.3055 41.9694 37.3055C41.5054 37.3055 41.0934 37.2095 40.7334 37.0175C40.3814 36.8255 40.1054 36.5775 39.9054 36.2735V40.4015H37.8534V30.5135H39.9054V31.4615ZM42.8334 33.8495C42.8334 33.3375 42.6894 32.9375 42.4014 32.6495C42.1214 32.3535 41.7734 32.2055 41.3574 32.2055C40.9494 32.2055 40.6014 32.3535 40.3134 32.6495C40.0334 32.9455 39.8934 33.3495 39.8934 33.8615C39.8934 34.3735 40.0334 34.7775 40.3134 35.0735C40.6014 35.3695 40.9494 35.5175 41.3574 35.5175C41.7654 35.5175 42.1134 35.3695 42.4014 35.0735C42.6894 34.7695 42.8334 34.3615 42.8334 33.8495ZM48.7219 37.3055C48.1379 37.3055 47.6179 37.2055 47.1619 37.0055C46.7059 36.8055 46.3459 36.5335 46.0819 36.1895C45.8179 35.8375 45.6699 35.4455 45.6379 35.0135H47.6659C47.6899 35.2455 47.7979 35.4335 47.9899 35.5775C48.1819 35.7215 48.4179 35.7935 48.6979 35.7935C48.9539 35.7935 49.1499 35.7455 49.2859 35.6495C49.4299 35.5455 49.5019 35.4135 49.5019 35.2535C49.5019 35.0615 49.4019 34.9215 49.2019 34.8335C49.0019 34.7375 48.6779 34.6335 48.2299 34.5215C47.7499 34.4095 47.3499 34.2935 47.0299 34.1735C46.7099 34.0455 46.4339 33.8495 46.2019 33.5855C45.9699 33.3135 45.8539 32.9495 45.8539 32.4935C45.8539 32.1095 45.9579 31.7615 46.1659 31.4495C46.3819 31.1295 46.6939 30.8775 47.1019 30.6935C47.5179 30.5095 48.0099 30.4175 48.5779 30.4175C49.4179 30.4175 50.0779 30.6255 50.5579 31.0415C51.0459 31.4575 51.3259 32.0095 51.3979 32.6975H49.5019C49.4699 32.4655 49.3659 32.2815 49.1899 32.1455C49.0219 32.0095 48.7979 31.9415 48.5179 31.9415C48.2779 31.9415 48.0939 31.9895 47.9659 32.0855C47.8379 32.1735 47.7739 32.2975 47.7739 32.4575C47.7739 32.6495 47.8739 32.7935 48.0739 32.8895C48.2819 32.9855 48.6019 33.0815 49.0339 33.1775C49.5299 33.3055 49.9339 33.4335 50.2459 33.5615C50.5579 33.6815 50.8299 33.8815 51.0619 34.1615C51.3019 34.4335 51.4259 34.8015 51.4339 35.2655C51.4339 35.6575 51.3219 36.0095 51.0979 36.3215C50.8819 36.6255 50.5659 36.8655 50.1499 37.0415C49.7419 37.2175 49.2659 37.3055 48.7219 37.3055Z" fill="white"/>
<path d="M73 11.3761V13.9594H93V11.3761M73 15.2511L71.75 21.7094V24.2928H73V32.0428H84.25C84.1875 31.6036 84.15 31.1515 84.15 30.6865C84.15 29.1107 84.625 27.5607 85.5 26.269V24.2928H87.425C88.675 23.4273 90.1375 22.9494 91.6375 22.9494C92.525 22.9494 93.4125 23.1173 94.25 23.4403V21.7094L93 15.2511M75.5 24.2928H83V29.4594H75.5M86.75 29.4594V32.0428H96.75V29.4594" fill="white"/>
</svg>
