<svg width="113" height="44" viewBox="0 0 113 44" fill="none" xmlns="http://www.w3.org/2000/svg">
<rect width="112.378" height="43.4189" rx="6.81081" fill="white"/>
<rect x="0.425676" y="0.425676" width="111.527" height="42.5676" rx="6.38513" stroke="black" stroke-opacity="0.2" stroke-width="0.851351"/>
<path d="M16.268 10.9735V13.4215H19.148V14.5375H16.268V17.0935H19.508V18.2095H14.9V9.85747H19.508V10.9735H16.268ZM24.025 14.8615L26.161 18.2095H24.613L23.185 15.9655L21.841 18.2095H20.413L22.549 14.9575L20.413 11.5975H21.961L23.389 13.8415L24.733 11.5975H26.161L24.025 14.8615ZM28.5493 12.5695C28.7813 12.2655 29.0973 12.0095 29.4973 11.8015C29.8973 11.5935 30.3493 11.4895 30.8533 11.4895C31.4293 11.4895 31.9533 11.6335 32.4253 11.9215C32.9053 12.2015 33.2813 12.5975 33.5533 13.1095C33.8253 13.6215 33.9613 14.2095 33.9613 14.8735C33.9613 15.5375 33.8253 16.1335 33.5533 16.6615C33.2813 17.1815 32.9053 17.5895 32.4253 17.8855C31.9533 18.1735 31.4293 18.3175 30.8533 18.3175C30.3493 18.3175 29.9013 18.2175 29.5093 18.0175C29.1173 17.8095 28.7973 17.5535 28.5493 17.2495V21.3535H27.1813V11.5975H28.5493V12.5695ZM32.5693 14.8735C32.5693 14.4175 32.4733 14.0255 32.2812 13.6975C32.0973 13.3615 31.8493 13.1095 31.5373 12.9415C31.2333 12.7655 30.9053 12.6775 30.5533 12.6775C30.2093 12.6775 29.8813 12.7655 29.5693 12.9415C29.2653 13.1175 29.0173 13.3735 28.8253 13.7095C28.6413 14.0455 28.5493 14.4415 28.5493 14.8975C28.5493 15.3535 28.6413 15.7535 28.8253 16.0975C29.0173 16.4335 29.2653 16.6895 29.5693 16.8655C29.8813 17.0415 30.2093 17.1295 30.5533 17.1295C30.9053 17.1295 31.2333 17.0415 31.5373 16.8655C31.8493 16.6815 32.0973 16.4175 32.2812 16.0735C32.4733 15.7295 32.5693 15.3295 32.5693 14.8735ZM36.6821 9.32947V18.2095H35.3141V9.32947H36.6821ZM41.3461 18.3175C40.7221 18.3175 40.1581 18.1775 39.6541 17.8975C39.1501 17.6095 38.7541 17.2095 38.4661 16.6975C38.1781 16.1775 38.0341 15.5775 38.0341 14.8975C38.0341 14.2255 38.1821 13.6295 38.4781 13.1095C38.7741 12.5895 39.1781 12.1895 39.6901 11.9095C40.2021 11.6295 40.7741 11.4895 41.4061 11.4895C42.0381 11.4895 42.6101 11.6295 43.1221 11.9095C43.6341 12.1895 44.0381 12.5895 44.3341 13.1095C44.6301 13.6295 44.7781 14.2255 44.7781 14.8975C44.7781 15.5695 44.6261 16.1655 44.3221 16.6855C44.0181 17.2055 43.6021 17.6095 43.0741 17.8975C42.5541 18.1775 41.9781 18.3175 41.3461 18.3175ZM41.3461 17.1295C41.6981 17.1295 42.0261 17.0455 42.3301 16.8775C42.6421 16.7095 42.8941 16.4575 43.0861 16.1215C43.2781 15.7855 43.3741 15.3775 43.3741 14.8975C43.3741 14.4175 43.2821 14.0135 43.0981 13.6855C42.9141 13.3495 42.6701 13.0975 42.3661 12.9295C42.0621 12.7615 41.7341 12.6775 41.3821 12.6775C41.0301 12.6775 40.7021 12.7615 40.3981 12.9295C40.1021 13.0975 39.8661 13.3495 39.6901 13.6855C39.5141 14.0135 39.4261 14.4175 39.4261 14.8975C39.4261 15.6095 39.6061 16.1615 39.9661 16.5535C40.3341 16.9375 40.7941 17.1295 41.3461 17.1295ZM47.4985 12.5575C47.6985 12.2215 47.9625 11.9615 48.2905 11.7775C48.6265 11.5855 49.0225 11.4895 49.4785 11.4895V12.9055H49.1305C48.5945 12.9055 48.1865 13.0415 47.9065 13.3135C47.6345 13.5855 47.4985 14.0575 47.4985 14.7295V18.2095H46.1305V11.5975H47.4985V12.5575ZM56.7959 14.7415C56.7959 14.9895 56.7799 15.2135 56.7479 15.4135H51.6959C51.7359 15.9415 51.9319 16.3655 52.2839 16.6855C52.6359 17.0055 53.0679 17.1655 53.5799 17.1655C54.3159 17.1655 54.8359 16.8575 55.1399 16.2415H56.6159C56.4159 16.8495 56.0519 17.3495 55.5239 17.7415C55.0039 18.1255 54.3559 18.3175 53.5799 18.3175C52.9479 18.3175 52.3799 18.1775 51.8759 17.8975C51.3799 17.6095 50.9879 17.2095 50.6999 16.6975C50.4199 16.1775 50.2799 15.5775 50.2799 14.8975C50.2799 14.2175 50.4159 13.6215 50.6879 13.1095C50.9679 12.5895 51.3559 12.1895 51.8519 11.9095C52.3559 11.6295 52.9319 11.4895 53.5799 11.4895C54.2039 11.4895 54.7599 11.6255 55.2479 11.8975C55.7359 12.1695 56.1159 12.5535 56.3879 13.0495C56.6599 13.5375 56.7959 14.1015 56.7959 14.7415ZM55.3679 14.3095C55.3599 13.8055 55.1799 13.4015 54.8279 13.0975C54.4759 12.7935 54.0399 12.6415 53.5199 12.6415C53.0479 12.6415 52.6439 12.7935 52.3079 13.0975C51.9719 13.3935 51.7719 13.7975 51.7079 14.3095H55.3679ZM23.684 28.8695V37.2095H22.316V31.4975L19.772 37.2095H18.824L16.268 31.4975V37.2095H14.9V28.8695H16.376L19.304 35.4095L22.22 28.8695H23.684ZM25.026 33.8735C25.026 33.2095 25.162 32.6215 25.434 32.1095C25.714 31.5975 26.09 31.2015 26.562 30.9215C27.042 30.6335 27.57 30.4895 28.146 30.4895C28.666 30.4895 29.118 30.5935 29.502 30.8015C29.894 31.0015 30.206 31.2535 30.438 31.5575V30.5975H31.818V37.2095H30.438V36.2255C30.206 36.5375 29.89 36.7975 29.49 37.0055C29.09 37.2135 28.634 37.3175 28.122 37.3175C27.554 37.3175 27.034 37.1735 26.562 36.8855C26.09 36.5895 25.714 36.1815 25.434 35.6615C25.162 35.1335 25.026 34.5375 25.026 33.8735ZM30.438 33.8975C30.438 33.4415 30.342 33.0455 30.15 32.7095C29.966 32.3735 29.722 32.1175 29.418 31.9415C29.114 31.7655 28.786 31.6775 28.434 31.6775C28.082 31.6775 27.754 31.7655 27.45 31.9415C27.146 32.1095 26.898 32.3615 26.706 32.6975C26.522 33.0255 26.43 33.4175 26.43 33.8735C26.43 34.3295 26.522 34.7295 26.706 35.0735C26.898 35.4175 27.146 35.6815 27.45 35.8655C27.762 36.0415 28.09 36.1295 28.434 36.1295C28.786 36.1295 29.114 36.0415 29.418 35.8655C29.722 35.6895 29.966 35.4335 30.15 35.0975C30.342 34.7535 30.438 34.3535 30.438 33.8975ZM34.9828 28.3295V37.2095H33.6148V28.3295H34.9828ZM38.1469 28.3295V37.2095H36.7789V28.3295H38.1469ZM42.343 37.3175C41.823 37.3175 41.355 37.2255 40.939 37.0415C40.531 36.8495 40.207 36.5935 39.967 36.2735C39.727 35.9455 39.599 35.5815 39.583 35.1815H40.999C41.023 35.4615 41.155 35.6975 41.395 35.8895C41.643 36.0735 41.951 36.1655 42.319 36.1655C42.703 36.1655 42.999 36.0935 43.207 35.9495C43.423 35.7975 43.531 35.6055 43.531 35.3735C43.531 35.1255 43.411 34.9415 43.171 34.8215C42.939 34.7015 42.567 34.5695 42.055 34.4255C41.559 34.2895 41.155 34.1575 40.843 34.0295C40.531 33.9015 40.259 33.7055 40.027 33.4415C39.803 33.1775 39.691 32.8295 39.691 32.3975C39.691 32.0455 39.795 31.7255 40.003 31.4375C40.211 31.1415 40.507 30.9095 40.891 30.7415C41.283 30.5735 41.731 30.4895 42.235 30.4895C42.987 30.4895 43.591 30.6815 44.047 31.0655C44.511 31.4415 44.759 31.9575 44.791 32.6135H43.423C43.399 32.3175 43.279 32.0815 43.063 31.9055C42.847 31.7295 42.555 31.6415 42.187 31.6415C41.827 31.6415 41.551 31.7095 41.359 31.8455C41.167 31.9815 41.071 32.1615 41.071 32.3855C41.071 32.5615 41.135 32.7095 41.263 32.8295C41.391 32.9495 41.547 33.0455 41.731 33.1175C41.915 33.1815 42.187 33.2655 42.547 33.3695C43.027 33.4975 43.419 33.6295 43.723 33.7655C44.035 33.8935 44.303 34.0855 44.527 34.3415C44.751 34.5975 44.867 34.9375 44.875 35.3615C44.875 35.7375 44.771 36.0735 44.563 36.3695C44.355 36.6655 44.059 36.8975 43.675 37.0655C43.299 37.2335 42.855 37.3175 42.343 37.3175Z" fill="black" fill-opacity="0.8"/>
<path d="M97 33.3345H94V10.0845H95C95.2652 10.0845 95.5196 9.98241 95.7071 9.80073C95.8946 9.61906 96 9.37265 96 9.11572C96 8.85879 95.8946 8.61239 95.7071 8.43071C95.5196 8.24904 95.2652 8.14697 95 8.14697H73C72.7348 8.14697 72.4804 8.24904 72.2929 8.43071C72.1054 8.61239 72 8.85879 72 9.11572C72 9.37265 72.1054 9.61906 72.2929 9.80073C72.4804 9.98241 72.7348 10.0845 73 10.0845H74V33.3345H71C70.7348 33.3345 70.4804 33.4365 70.2929 33.6182C70.1054 33.7999 70 34.0463 70 34.3032C70 34.5602 70.1054 34.8066 70.2929 34.9882C70.4804 35.1699 70.7348 35.272 71 35.272H97C97.2652 35.272 97.5196 35.1699 97.7071 34.9882C97.8946 34.8066 98 34.5602 98 34.3032C98 34.0463 97.8946 33.7999 97.7071 33.6182C97.5196 33.4365 97.2652 33.3345 97 33.3345ZM79 12.9907H82C82.2652 12.9907 82.5196 13.0928 82.7071 13.2745C82.8946 13.4561 83 13.7025 83 13.9595C83 14.2164 82.8946 14.4628 82.7071 14.6445C82.5196 14.8262 82.2652 14.9282 82 14.9282H79C78.7348 14.9282 78.4804 14.8262 78.2929 14.6445C78.1054 14.4628 78 14.2164 78 13.9595C78 13.7025 78.1054 13.4561 78.2929 13.2745C78.4804 13.0928 78.7348 12.9907 79 12.9907ZM79 17.8345H82C82.2652 17.8345 82.5196 17.9365 82.7071 18.1182C82.8946 18.2999 83 18.5463 83 18.8032C83 19.0602 82.8946 19.3066 82.7071 19.4882C82.5196 19.6699 82.2652 19.772 82 19.772H79C78.7348 19.772 78.4804 19.6699 78.2929 19.4882C78.1054 19.3066 78 19.0602 78 18.8032C78 18.5463 78.1054 18.2999 78.2929 18.1182C78.4804 17.9365 78.7348 17.8345 79 17.8345ZM78 23.647C78 23.39 78.1054 23.1436 78.2929 22.962C78.4804 22.7803 78.7348 22.6782 79 22.6782H82C82.2652 22.6782 82.5196 22.7803 82.7071 22.962C82.8946 23.1436 83 23.39 83 23.647C83 23.9039 82.8946 24.1503 82.7071 24.332C82.5196 24.5137 82.2652 24.6157 82 24.6157H79C78.7348 24.6157 78.4804 24.5137 78.2929 24.332C78.1054 24.1503 78 23.9039 78 23.647ZM87 33.3345H81V28.4907H87V33.3345ZM89 24.6157H86C85.7348 24.6157 85.4804 24.5137 85.2929 24.332C85.1054 24.1503 85 23.9039 85 23.647C85 23.39 85.1054 23.1436 85.2929 22.962C85.4804 22.7803 85.7348 22.6782 86 22.6782H89C89.2652 22.6782 89.5196 22.7803 89.7071 22.962C89.8946 23.1436 90 23.39 90 23.647C90 23.9039 89.8946 24.1503 89.7071 24.332C89.5196 24.5137 89.2652 24.6157 89 24.6157ZM89 19.772H86C85.7348 19.772 85.4804 19.6699 85.2929 19.4882C85.1054 19.3066 85 19.0602 85 18.8032C85 18.5463 85.1054 18.2999 85.2929 18.1182C85.4804 17.9365 85.7348 17.8345 86 17.8345H89C89.2652 17.8345 89.5196 17.9365 89.7071 18.1182C89.8946 18.2999 90 18.5463 90 18.8032C90 19.0602 89.8946 19.3066 89.7071 19.4882C89.5196 19.6699 89.2652 19.772 89 19.772ZM89 14.9282H86C85.7348 14.9282 85.4804 14.8262 85.2929 14.6445C85.1054 14.4628 85 14.2164 85 13.9595C85 13.7025 85.1054 13.4561 85.2929 13.2745C85.4804 13.0928 85.7348 12.9907 86 12.9907H89C89.2652 12.9907 89.5196 13.0928 89.7071 13.2745C89.8946 13.4561 90 13.7025 90 13.9595C90 14.2164 89.8946 14.4628 89.7071 14.6445C89.5196 14.8262 89.2652 14.9282 89 14.9282Z" fill="black"/>
</svg>
