<svg width="113" height="44" viewBox="0 0 113 44" fill="none" xmlns="http://www.w3.org/2000/svg">
<rect x="0.37793" y="0.0528564" width="112.378" height="43.4189" rx="6.81081" fill="white"/>
<rect x="0.803605" y="0.478532" width="111.527" height="42.5676" rx="6.38513" stroke="black" stroke-opacity="0.2" stroke-width="0.851351"/>
<path d="M17.268 10.764V13.212H20.148V14.328H17.268V16.884H20.508V18H15.9V9.648H20.508V10.764H17.268ZM25.025 14.652L27.161 18H25.613L24.185 15.756L22.841 18H21.413L23.549 14.748L21.413 11.388H22.961L24.389 13.632L25.733 11.388H27.161L25.025 14.652ZM29.5493 12.36C29.7813 12.056 30.0973 11.8 30.4973 11.592C30.8973 11.384 31.3493 11.28 31.8533 11.28C32.4293 11.28 32.9533 11.424 33.4253 11.712C33.9053 11.992 34.2813 12.388 34.5533 12.9C34.8253 13.412 34.9613 14 34.9613 14.664C34.9613 15.328 34.8253 15.924 34.5533 16.452C34.2813 16.972 33.9053 17.38 33.4253 17.676C32.9533 17.964 32.4293 18.108 31.8533 18.108C31.3493 18.108 30.9013 18.008 30.5093 17.808C30.1173 17.6 29.7973 17.344 29.5493 17.04V21.144H28.1813V11.388H29.5493V12.36ZM33.5693 14.664C33.5693 14.208 33.4733 13.816 33.2812 13.488C33.0973 13.152 32.8493 12.9 32.5373 12.732C32.2333 12.556 31.9053 12.468 31.5533 12.468C31.2093 12.468 30.8813 12.556 30.5693 12.732C30.2653 12.908 30.0173 13.164 29.8253 13.5C29.6413 13.836 29.5493 14.232 29.5493 14.688C29.5493 15.144 29.6413 15.544 29.8253 15.888C30.0173 16.224 30.2653 16.48 30.5693 16.656C30.8813 16.832 31.2093 16.92 31.5533 16.92C31.9053 16.92 32.2333 16.832 32.5373 16.656C32.8493 16.472 33.0973 16.208 33.2812 15.864C33.4733 15.52 33.5693 15.12 33.5693 14.664ZM37.6821 9.12V18H36.3141V9.12H37.6821ZM42.3461 18.108C41.7221 18.108 41.1581 17.968 40.6541 17.688C40.1501 17.4 39.7541 17 39.4661 16.488C39.1781 15.968 39.0341 15.368 39.0341 14.688C39.0341 14.016 39.1821 13.42 39.4781 12.9C39.7741 12.38 40.1781 11.98 40.6901 11.7C41.2021 11.42 41.7741 11.28 42.4061 11.28C43.0381 11.28 43.6101 11.42 44.1221 11.7C44.6341 11.98 45.0381 12.38 45.3341 12.9C45.6301 13.42 45.7781 14.016 45.7781 14.688C45.7781 15.36 45.6261 15.956 45.3221 16.476C45.0181 16.996 44.6021 17.4 44.0741 17.688C43.5541 17.968 42.9781 18.108 42.3461 18.108ZM42.3461 16.92C42.6981 16.92 43.0261 16.836 43.3301 16.668C43.6421 16.5 43.8941 16.248 44.0861 15.912C44.2781 15.576 44.3741 15.168 44.3741 14.688C44.3741 14.208 44.2821 13.804 44.0981 13.476C43.9141 13.14 43.6701 12.888 43.3661 12.72C43.0621 12.552 42.7341 12.468 42.3821 12.468C42.0301 12.468 41.7021 12.552 41.3981 12.72C41.1021 12.888 40.8661 13.14 40.6901 13.476C40.5141 13.804 40.4261 14.208 40.4261 14.688C40.4261 15.4 40.6061 15.952 40.9661 16.344C41.3341 16.728 41.7941 16.92 42.3461 16.92ZM48.4985 12.348C48.6985 12.012 48.9625 11.752 49.2905 11.568C49.6265 11.376 50.0225 11.28 50.4785 11.28V12.696H50.1305C49.5945 12.696 49.1865 12.832 48.9065 13.104C48.6345 13.376 48.4985 13.848 48.4985 14.52V18H47.1305V11.388H48.4985V12.348ZM57.7959 14.532C57.7959 14.78 57.7799 15.004 57.7479 15.204H52.6959C52.7359 15.732 52.9319 16.156 53.2839 16.476C53.6359 16.796 54.0679 16.956 54.5799 16.956C55.3159 16.956 55.8359 16.648 56.1399 16.032H57.6159C57.4159 16.64 57.0519 17.14 56.5239 17.532C56.0039 17.916 55.3559 18.108 54.5799 18.108C53.9479 18.108 53.3799 17.968 52.8759 17.688C52.3799 17.4 51.9879 17 51.6999 16.488C51.4199 15.968 51.2799 15.368 51.2799 14.688C51.2799 14.008 51.4159 13.412 51.6879 12.9C51.9679 12.38 52.3559 11.98 52.8519 11.7C53.3559 11.42 53.9319 11.28 54.5799 11.28C55.2039 11.28 55.7599 11.416 56.2479 11.688C56.7359 11.96 57.1159 12.344 57.3879 12.84C57.6599 13.328 57.7959 13.892 57.7959 14.532ZM56.3679 14.1C56.3599 13.596 56.1799 13.192 55.8279 12.888C55.4759 12.584 55.0399 12.432 54.5199 12.432C54.0479 12.432 53.6439 12.584 53.3079 12.888C52.9719 13.184 52.7719 13.588 52.7079 14.1H56.3679ZM18.648 37.084C18.088 37.084 17.584 36.988 17.136 36.796C16.688 36.596 16.336 36.316 16.08 35.956C15.824 35.596 15.696 35.176 15.696 34.696H17.16C17.192 35.056 17.332 35.352 17.58 35.584C17.836 35.816 18.192 35.932 18.648 35.932C19.12 35.932 19.488 35.82 19.752 35.596C20.016 35.364 20.148 35.068 20.148 34.708C20.148 34.428 20.064 34.2 19.896 34.024C19.736 33.848 19.532 33.712 19.284 33.616C19.044 33.52 18.708 33.416 18.276 33.304C17.732 33.16 17.288 33.016 16.944 32.872C16.608 32.72 16.32 32.488 16.08 32.176C15.84 31.864 15.72 31.448 15.72 30.928C15.72 30.448 15.84 30.028 16.08 29.668C16.32 29.308 16.656 29.032 17.088 28.84C17.52 28.648 18.02 28.552 18.588 28.552C19.396 28.552 20.056 28.756 20.568 29.164C21.088 29.564 21.376 30.116 21.432 30.82H19.92C19.896 30.516 19.752 30.256 19.488 30.04C19.224 29.824 18.876 29.716 18.444 29.716C18.052 29.716 17.732 29.816 17.484 30.016C17.236 30.216 17.112 30.504 17.112 30.88C17.112 31.136 17.188 31.348 17.34 31.516C17.5 31.676 17.7 31.804 17.94 31.9C18.18 31.996 18.508 32.1 18.924 32.212C19.476 32.364 19.924 32.516 20.268 32.668C20.62 32.82 20.916 33.056 21.156 33.376C21.404 33.688 21.528 34.108 21.528 34.636C21.528 35.06 21.412 35.46 21.18 35.836C20.956 36.212 20.624 36.516 20.184 36.748C19.752 36.972 19.24 37.084 18.648 37.084ZM26.5622 30.28C27.0662 30.28 27.5142 30.388 27.9062 30.604C28.3062 30.82 28.6182 31.14 28.8422 31.564C29.0742 31.988 29.1902 32.5 29.1902 33.1V37H27.8342V33.304C27.8342 32.712 27.6862 32.26 27.3902 31.948C27.0942 31.628 26.6902 31.468 26.1782 31.468C25.6662 31.468 25.2582 31.628 24.9542 31.948C24.6582 32.26 24.5102 32.712 24.5102 33.304V37H23.1422V28.12H24.5102V31.156C24.7422 30.876 25.0342 30.66 25.3862 30.508C25.7462 30.356 26.1382 30.28 26.5622 30.28ZM33.8032 37.108C33.1792 37.108 32.6152 36.968 32.1112 36.688C31.6072 36.4 31.2112 36 30.9232 35.488C30.6352 34.968 30.4912 34.368 30.4912 33.688C30.4912 33.016 30.6392 32.42 30.9352 31.9C31.2312 31.38 31.6352 30.98 32.1472 30.7C32.6592 30.42 33.2312 30.28 33.8632 30.28C34.4952 30.28 35.0672 30.42 35.5792 30.7C36.0912 30.98 36.4952 31.38 36.7912 31.9C37.0872 32.42 37.2352 33.016 37.2352 33.688C37.2352 34.36 37.0832 34.956 36.7792 35.476C36.4752 35.996 36.0592 36.4 35.5312 36.688C35.0112 36.968 34.4352 37.108 33.8032 37.108ZM33.8032 35.92C34.1552 35.92 34.4832 35.836 34.7872 35.668C35.0992 35.5 35.3512 35.248 35.5432 34.912C35.7352 34.576 35.8312 34.168 35.8312 33.688C35.8312 33.208 35.7392 32.804 35.5552 32.476C35.3712 32.14 35.1272 31.888 34.8232 31.72C34.5192 31.552 34.1912 31.468 33.8392 31.468C33.4872 31.468 33.1592 31.552 32.8552 31.72C32.5592 31.888 32.3232 32.14 32.1472 32.476C31.9712 32.804 31.8832 33.208 31.8832 33.688C31.8832 34.4 32.0632 34.952 32.4232 35.344C32.7912 35.728 33.2512 35.92 33.8032 35.92ZM39.9555 31.36C40.1875 31.056 40.5035 30.8 40.9035 30.592C41.3035 30.384 41.7555 30.28 42.2595 30.28C42.8355 30.28 43.3595 30.424 43.8315 30.712C44.3115 30.992 44.6875 31.388 44.9595 31.9C45.2315 32.412 45.3675 33 45.3675 33.664C45.3675 34.328 45.2315 34.924 44.9595 35.452C44.6875 35.972 44.3115 36.38 43.8315 36.676C43.3595 36.964 42.8355 37.108 42.2595 37.108C41.7555 37.108 41.3075 37.008 40.9155 36.808C40.5235 36.6 40.2035 36.344 39.9555 36.04V40.144H38.5875V30.388H39.9555V31.36ZM43.9755 33.664C43.9755 33.208 43.8795 32.816 43.6875 32.488C43.5035 32.152 43.2555 31.9 42.9435 31.732C42.6395 31.556 42.3115 31.468 41.9595 31.468C41.6155 31.468 41.2875 31.556 40.9755 31.732C40.6715 31.908 40.4235 32.164 40.2315 32.5C40.0475 32.836 39.9555 33.232 39.9555 33.688C39.9555 34.144 40.0475 34.544 40.2315 34.888C40.4235 35.224 40.6715 35.48 40.9755 35.656C41.2875 35.832 41.6155 35.92 41.9595 35.92C42.3115 35.92 42.6395 35.832 42.9435 35.656C43.2555 35.472 43.5035 35.208 43.6875 34.864C43.8795 34.52 43.9755 34.12 43.9755 33.664ZM49.1203 37.108C48.6003 37.108 48.1323 37.016 47.7163 36.832C47.3083 36.64 46.9843 36.384 46.7443 36.064C46.5043 35.736 46.3763 35.372 46.3603 34.972H47.7763C47.8003 35.252 47.9323 35.488 48.1723 35.68C48.4203 35.864 48.7283 35.956 49.0963 35.956C49.4803 35.956 49.7763 35.884 49.9843 35.74C50.2003 35.588 50.3083 35.396 50.3083 35.164C50.3083 34.916 50.1883 34.732 49.9483 34.612C49.7163 34.492 49.3443 34.36 48.8323 34.216C48.3363 34.08 47.9323 33.948 47.6203 33.82C47.3083 33.692 47.0363 33.496 46.8043 33.232C46.5803 32.968 46.4683 32.62 46.4683 32.188C46.4683 31.836 46.5723 31.516 46.7803 31.228C46.9883 30.932 47.2843 30.7 47.6683 30.532C48.0603 30.364 48.5083 30.28 49.0123 30.28C49.7643 30.28 50.3683 30.472 50.8243 30.856C51.2883 31.232 51.5363 31.748 51.5683 32.404H50.2003C50.1763 32.108 50.0563 31.872 49.8403 31.696C49.6243 31.52 49.3323 31.432 48.9643 31.432C48.6043 31.432 48.3283 31.5 48.1363 31.636C47.9443 31.772 47.8483 31.952 47.8483 32.176C47.8483 32.352 47.9123 32.5 48.0403 32.62C48.1683 32.74 48.3243 32.836 48.5083 32.908C48.6923 32.972 48.9643 33.056 49.3243 33.16C49.8043 33.288 50.1963 33.42 50.5003 33.556C50.8123 33.684 51.0803 33.876 51.3043 34.132C51.5283 34.388 51.6443 34.728 51.6523 35.152C51.6523 35.528 51.5483 35.864 51.3403 36.16C51.1323 36.456 50.8363 36.688 50.4523 36.856C50.0763 37.024 49.6323 37.108 49.1203 37.108Z" fill="black"/>
<path d="M74 11.1666V13.75H94V11.1666M74 15.0416L72.75 21.5V24.0833H74V31.8333H85.25C85.1875 31.3941 85.15 30.942 85.15 30.477C85.15 28.9012 85.625 27.3512 86.5 26.0595V24.0833H88.425C89.675 23.2179 91.1375 22.74 92.6375 22.74C93.525 22.74 94.4125 22.9079 95.25 23.2308V21.5L94 15.0416M76.5 24.0833H84V29.25H76.5M87.75 29.25V31.8333H97.75V29.25" fill="black"/>
</svg>
