<svg width="113" height="44" viewBox="0 0 113 44" fill="none" xmlns="http://www.w3.org/2000/svg">
<rect y="0.0528564" width="112.378" height="43.4189" rx="6.81081" fill="#FB818C"/>
<path d="M15.796 11.22V12.924H18.544V14.508H15.796V16.356H18.904V18H13.744V9.576H18.904V11.22H15.796ZM24.1962 18L22.9122 16.14L21.8322 18H19.6122L21.8202 14.58L19.5522 11.304H21.8562L23.1402 13.152L24.2202 11.304H26.4402L24.1962 14.676L26.5002 18H24.1962ZM29.3429 12.252C29.5429 11.94 29.8189 11.688 30.1709 11.496C30.5229 11.304 30.9349 11.208 31.4069 11.208C31.9589 11.208 32.4589 11.348 32.9069 11.628C33.3549 11.908 33.7069 12.308 33.9629 12.828C34.2269 13.348 34.3589 13.952 34.3589 14.64C34.3589 15.328 34.2269 15.936 33.9629 16.464C33.7069 16.984 33.3549 17.388 32.9069 17.676C32.4589 17.956 31.9589 18.096 31.4069 18.096C30.9429 18.096 30.5309 18 30.1709 17.808C29.8189 17.616 29.5429 17.368 29.3429 17.064V21.192H27.2909V11.304H29.3429V12.252ZM32.2709 14.64C32.2709 14.128 32.1269 13.728 31.8389 13.44C31.5589 13.144 31.2109 12.996 30.7949 12.996C30.3869 12.996 30.0389 13.144 29.7509 13.44C29.4709 13.736 29.3309 14.14 29.3309 14.652C29.3309 15.164 29.4709 15.568 29.7509 15.864C30.0389 16.16 30.3869 16.308 30.7949 16.308C31.2029 16.308 31.5509 16.16 31.8389 15.864C32.1269 15.56 32.2709 15.152 32.2709 14.64ZM37.4874 9.12V18H35.4354V9.12H37.4874ZM42.0225 18.096C41.3665 18.096 40.7745 17.956 40.2465 17.676C39.7265 17.396 39.3145 16.996 39.0105 16.476C38.7145 15.956 38.5665 15.348 38.5665 14.652C38.5665 13.964 38.7185 13.36 39.0225 12.84C39.3265 12.312 39.7425 11.908 40.2705 11.628C40.7985 11.348 41.3905 11.208 42.0465 11.208C42.7025 11.208 43.2945 11.348 43.8225 11.628C44.3505 11.908 44.7665 12.312 45.0705 12.84C45.3745 13.36 45.5265 13.964 45.5265 14.652C45.5265 15.34 45.3705 15.948 45.0585 16.476C44.7545 16.996 44.3345 17.396 43.7985 17.676C43.2705 17.956 42.6785 18.096 42.0225 18.096ZM42.0225 16.32C42.4145 16.32 42.7465 16.176 43.0185 15.888C43.2985 15.6 43.4385 15.188 43.4385 14.652C43.4385 14.116 43.3025 13.704 43.0305 13.416C42.7665 13.128 42.4385 12.984 42.0465 12.984C41.6465 12.984 41.3145 13.128 41.0505 13.416C40.7865 13.696 40.6545 14.108 40.6545 14.652C40.6545 15.188 40.7825 15.6 41.0385 15.888C41.3025 16.176 41.6305 16.32 42.0225 16.32ZM48.6671 12.42C48.9071 12.052 49.2071 11.764 49.5671 11.556C49.9271 11.34 50.3271 11.232 50.7671 11.232V13.404H50.2031C49.6911 13.404 49.3071 13.516 49.0511 13.74C48.7951 13.956 48.6671 14.34 48.6671 14.892V18H46.6151V11.304H48.6671V12.42ZM58.0599 14.544C58.0599 14.736 58.0479 14.936 58.0239 15.144H53.3799C53.4119 15.56 53.5439 15.88 53.7759 16.104C54.0159 16.32 54.3079 16.428 54.6519 16.428C55.1639 16.428 55.5199 16.212 55.7199 15.78H57.9039C57.7919 16.22 57.5879 16.616 57.2919 16.968C57.0039 17.32 56.6399 17.596 56.1999 17.796C55.7599 17.996 55.2679 18.096 54.7239 18.096C54.0679 18.096 53.4839 17.956 52.9719 17.676C52.4599 17.396 52.0599 16.996 51.7719 16.476C51.4839 15.956 51.3399 15.348 51.3399 14.652C51.3399 13.956 51.4799 13.348 51.7599 12.828C52.0479 12.308 52.4479 11.908 52.9599 11.628C53.4719 11.348 54.0599 11.208 54.7239 11.208C55.3719 11.208 55.9479 11.344 56.4519 11.616C56.9559 11.888 57.3479 12.276 57.6279 12.78C57.9159 13.284 58.0599 13.872 58.0599 14.544ZM55.9599 14.004C55.9599 13.652 55.8399 13.372 55.5999 13.164C55.3599 12.956 55.0599 12.852 54.6999 12.852C54.3559 12.852 54.0639 12.952 53.8239 13.152C53.5919 13.352 53.4479 13.636 53.3919 14.004H55.9599ZM23.284 28.576V37H21.232V31.948L19.348 37H17.692L15.796 31.936V37H13.744V28.576H16.168L18.532 34.408L20.872 28.576H23.284ZM24.3516 33.64C24.3516 32.952 24.4796 32.348 24.7356 31.828C24.9996 31.308 25.3556 30.908 25.8036 30.628C26.2516 30.348 26.7516 30.208 27.3036 30.208C27.7756 30.208 28.1876 30.304 28.5396 30.496C28.8996 30.688 29.1756 30.94 29.3676 31.252V30.304H31.4196V37H29.3676V36.052C29.1676 36.364 28.8876 36.616 28.5276 36.808C28.1756 37 27.7636 37.096 27.2916 37.096C26.7476 37.096 26.2516 36.956 25.8036 36.676C25.3556 36.388 24.9996 35.984 24.7356 35.464C24.4796 34.936 24.3516 34.328 24.3516 33.64ZM29.3676 33.652C29.3676 33.14 29.2236 32.736 28.9356 32.44C28.6556 32.144 28.3116 31.996 27.9036 31.996C27.4956 31.996 27.1476 32.144 26.8596 32.44C26.5796 32.728 26.4396 33.128 26.4396 33.64C26.4396 34.152 26.5796 34.56 26.8596 34.864C27.1476 35.16 27.4956 35.308 27.9036 35.308C28.3116 35.308 28.6556 35.16 28.9356 34.864C29.2236 34.568 29.3676 34.164 29.3676 33.652ZM34.9562 28.12V37H32.9042V28.12H34.9562ZM38.4952 28.12V37H36.4432V28.12H38.4952ZM42.7063 37.096C42.1223 37.096 41.6023 36.996 41.1463 36.796C40.6903 36.596 40.3303 36.324 40.0663 35.98C39.8023 35.628 39.6543 35.236 39.6223 34.804H41.6503C41.6743 35.036 41.7823 35.224 41.9743 35.368C42.1663 35.512 42.4023 35.584 42.6823 35.584C42.9383 35.584 43.1343 35.536 43.2703 35.44C43.4143 35.336 43.4863 35.204 43.4863 35.044C43.4863 34.852 43.3863 34.712 43.1863 34.624C42.9863 34.528 42.6623 34.424 42.2143 34.312C41.7343 34.2 41.3343 34.084 41.0143 33.964C40.6943 33.836 40.4183 33.64 40.1863 33.376C39.9543 33.104 39.8383 32.74 39.8383 32.284C39.8383 31.9 39.9423 31.552 40.1503 31.24C40.3663 30.92 40.6783 30.668 41.0863 30.484C41.5023 30.3 41.9943 30.208 42.5623 30.208C43.4023 30.208 44.0623 30.416 44.5423 30.832C45.0303 31.248 45.3103 31.8 45.3823 32.488H43.4863C43.4543 32.256 43.3503 32.072 43.1743 31.936C43.0063 31.8 42.7823 31.732 42.5023 31.732C42.2623 31.732 42.0783 31.78 41.9503 31.876C41.8223 31.964 41.7583 32.088 41.7583 32.248C41.7583 32.44 41.8583 32.584 42.0583 32.68C42.2663 32.776 42.5863 32.872 43.0183 32.968C43.5143 33.096 43.9183 33.224 44.2303 33.352C44.5423 33.472 44.8143 33.672 45.0463 33.952C45.2863 34.224 45.4103 34.592 45.4183 35.056C45.4183 35.448 45.3063 35.8 45.0823 36.112C44.8663 36.416 44.5503 36.656 44.1343 36.832C43.7263 37.008 43.2503 37.096 42.7063 37.096Z" fill="white"/>
<path d="M96 33.125H93V9.875H94C94.2652 9.875 94.5196 9.77294 94.7071 9.59126C94.8946 9.40958 95 9.16318 95 8.90625C95 8.64932 94.8946 8.40292 94.7071 8.22124C94.5196 8.03956 94.2652 7.9375 94 7.9375H72C71.7348 7.9375 71.4804 8.03956 71.2929 8.22124C71.1054 8.40292 71 8.64932 71 8.90625C71 9.16318 71.1054 9.40958 71.2929 9.59126C71.4804 9.77294 71.7348 9.875 72 9.875H73V33.125H70C69.7348 33.125 69.4804 33.2271 69.2929 33.4087C69.1054 33.5904 69 33.8368 69 34.0938C69 34.3507 69.1054 34.5971 69.2929 34.7788C69.4804 34.9604 69.7348 35.0625 70 35.0625H96C96.2652 35.0625 96.5196 34.9604 96.7071 34.7788C96.8946 34.5971 97 34.3507 97 34.0938C97 33.8368 96.8946 33.5904 96.7071 33.4087C96.5196 33.2271 96.2652 33.125 96 33.125ZM78 12.7812H81C81.2652 12.7812 81.5196 12.8833 81.7071 13.065C81.8946 13.2467 82 13.4931 82 13.75C82 14.0069 81.8946 14.2533 81.7071 14.435C81.5196 14.6167 81.2652 14.7188 81 14.7188H78C77.7348 14.7188 77.4804 14.6167 77.2929 14.435C77.1054 14.2533 77 14.0069 77 13.75C77 13.4931 77.1054 13.2467 77.2929 13.065C77.4804 12.8833 77.7348 12.7812 78 12.7812ZM78 17.625H81C81.2652 17.625 81.5196 17.7271 81.7071 17.9087C81.8946 18.0904 82 18.3368 82 18.5938C82 18.8507 81.8946 19.0971 81.7071 19.2788C81.5196 19.4604 81.2652 19.5625 81 19.5625H78C77.7348 19.5625 77.4804 19.4604 77.2929 19.2788C77.1054 19.0971 77 18.8507 77 18.5938C77 18.3368 77.1054 18.0904 77.2929 17.9087C77.4804 17.7271 77.7348 17.625 78 17.625ZM77 23.4375C77 23.1806 77.1054 22.9342 77.2929 22.7525C77.4804 22.5708 77.7348 22.4688 78 22.4688H81C81.2652 22.4688 81.5196 22.5708 81.7071 22.7525C81.8946 22.9342 82 23.1806 82 23.4375C82 23.6944 81.8946 23.9408 81.7071 24.1225C81.5196 24.3042 81.2652 24.4062 81 24.4062H78C77.7348 24.4062 77.4804 24.3042 77.2929 24.1225C77.1054 23.9408 77 23.6944 77 23.4375ZM86 33.125H80V28.2812H86V33.125ZM88 24.4062H85C84.7348 24.4062 84.4804 24.3042 84.2929 24.1225C84.1054 23.9408 84 23.6944 84 23.4375C84 23.1806 84.1054 22.9342 84.2929 22.7525C84.4804 22.5708 84.7348 22.4688 85 22.4688H88C88.2652 22.4688 88.5196 22.5708 88.7071 22.7525C88.8946 22.9342 89 23.1806 89 23.4375C89 23.6944 88.8946 23.9408 88.7071 24.1225C88.5196 24.3042 88.2652 24.4062 88 24.4062ZM88 19.5625H85C84.7348 19.5625 84.4804 19.4604 84.2929 19.2788C84.1054 19.0971 84 18.8507 84 18.5938C84 18.3368 84.1054 18.0904 84.2929 17.9087C84.4804 17.7271 84.7348 17.625 85 17.625H88C88.2652 17.625 88.5196 17.7271 88.7071 17.9087C88.8946 18.0904 89 18.3368 89 18.5938C89 18.8507 88.8946 19.0971 88.7071 19.2788C88.5196 19.4604 88.2652 19.5625 88 19.5625ZM88 14.7188H85C84.7348 14.7188 84.4804 14.6167 84.2929 14.435C84.1054 14.2533 84 14.0069 84 13.75C84 13.4931 84.1054 13.2467 84.2929 13.065C84.4804 12.8833 84.7348 12.7812 85 12.7812H88C88.2652 12.7812 88.5196 12.8833 88.7071 13.065C88.8946 13.2467 89 13.4931 89 13.75C89 14.0069 88.8946 14.2533 88.7071 14.435C88.5196 14.6167 88.2652 14.7188 88 14.7188Z" fill="white"/>
</svg>
