<svg width="46" height="46" viewBox="0 0 46 46" fill="none" xmlns="http://www.w3.org/2000/svg">
<rect width="46" height="46" rx="12" fill="#FB818C"/>
<path d="M22.5938 18.3646H13.5312" stroke="white" stroke-width="1.8125" stroke-linecap="round"/>
<path d="M30.1458 21.0834C31.8142 21.0834 33.1666 19.7309 33.1666 18.0625C33.1666 16.3942 31.8142 15.0417 30.1458 15.0417C28.4774 15.0417 27.125 16.3942 27.125 18.0625C27.125 19.7309 28.4774 21.0834 30.1458 21.0834Z" fill="white" stroke="white"/>
<path d="M33.4687 29.2396H23.1979" stroke="white" stroke-width="1.8125" stroke-linecap="round"/>
<path d="M15.6458 31.9584C17.3142 31.9584 18.6666 30.6059 18.6666 28.9375C18.6666 27.2692 17.3142 25.9167 15.6458 25.9167C13.9774 25.9167 12.625 27.2692 12.625 28.9375C12.625 30.6059 13.9774 31.9584 15.6458 31.9584Z" fill="white" stroke="white"/>
</svg>
