<svg width="30" height="29" viewBox="0 0 30 29" fill="none" xmlns="http://www.w3.org/2000/svg">
<rect x="0.012207" width="29" height="29" rx="8" fill="white"/>
<g clip-path="url(#clip0_222_3129)">
<path d="M11.0122 14.5C12.9466 14.5 14.5122 12.9344 14.5122 11C14.5122 9.06562 12.9466 7.5 11.0122 7.5C9.07783 7.5 7.51221 9.06562 7.51221 11C7.51221 12.9344 9.07783 14.5 11.0122 14.5ZM13.4122 15.5H13.1528C12.5028 15.8125 11.781 16 11.0122 16C10.2435 16 9.52471 15.8125 8.87158 15.5H8.61221C6.62471 15.5 5.01221 17.1125 5.01221 19.1V20C5.01221 20.8281 5.68408 21.5 6.51221 21.5H15.5122C16.3403 21.5 17.0122 20.8281 17.0122 20V19.1C17.0122 17.1125 15.3997 15.5 13.4122 15.5ZM20.0122 14.5C21.6685 14.5 23.0122 13.1562 23.0122 11.5C23.0122 9.84375 21.6685 8.5 20.0122 8.5C18.356 8.5 17.0122 9.84375 17.0122 11.5C17.0122 13.1562 18.356 14.5 20.0122 14.5ZM21.5122 15.5H21.3935C20.9591 15.65 20.4997 15.75 20.0122 15.75C19.5247 15.75 19.0653 15.65 18.631 15.5H18.5122C17.8747 15.5 17.2872 15.6844 16.7716 15.9812C17.5341 16.8031 18.0122 17.8938 18.0122 19.1V20.3C18.0122 20.3688 17.9966 20.4344 17.9935 20.5H23.5122C24.3403 20.5 25.0122 19.8281 25.0122 19C25.0122 17.0656 23.4466 15.5 21.5122 15.5Z" fill="black"/>
</g>
<defs>
<clipPath id="clip0_222_3129">
<rect width="20" height="16" fill="white" transform="translate(5.01221 6.5)"/>
</clipPath>
</defs>
</svg>
