<svg width="30" height="29" viewBox="0 0 30 29" fill="none" xmlns="http://www.w3.org/2000/svg">
<rect x="0.012207" width="29" height="29" rx="8" fill="white"/>
<g clip-path="url(#clip0_222_3115)">
<path d="M15.0058 5.284C14.7612 5.2844 14.5257 5.37621 14.3454 5.5414L5.30736 13.51L5.29896 13.5176C5.00816 13.7866 4.94056 14.2256 5.08696 14.546C5.23336 14.8664 5.57656 15.0958 5.96576 15.096H8.29616V22.7976C8.29616 23.3234 8.75376 23.7156 9.25556 23.7158H20.7684C21.2702 23.7158 21.7278 23.3234 21.7278 22.7978V15.096H24.0584C24.4476 15.096 24.7908 14.8668 24.9372 14.5462C25.0836 14.2258 25.016 13.7866 24.7252 13.5176L24.7168 13.51L15.6788 5.5414C15.4952 5.3732 15.2547 5.28117 15.0058 5.284ZM15.0122 10.1414C17.1322 10.1414 18.8688 11.8734 18.8688 13.9872C18.8688 14.4962 18.7674 14.983 18.5848 15.4288C18.5454 15.5463 18.4961 15.6603 18.4376 15.7696L15.4796 20.8036C15.1672 21.227 14.9176 21.3202 14.5418 20.8296L11.8598 16.1934C11.4018 15.5489 11.1557 14.7779 11.1556 13.9872C11.1556 11.8732 12.8922 10.1412 15.0122 10.1412M15.0122 11.9432C13.8706 11.9432 12.9626 12.8486 12.9626 13.987C12.9626 15.1254 13.8706 16.0308 15.0122 16.0308C16.1538 16.0308 17.0618 15.1254 17.0618 13.9872C17.0618 12.8488 16.1538 11.9436 15.0122 11.9436" fill="black"/>
</g>
<defs>
<clipPath id="clip0_222_3115">
<rect width="20" height="20" fill="white" transform="translate(5.01221 4.5)"/>
</clipPath>
</defs>
</svg>
