<svg width="29" height="29" viewBox="0 0 29 29" fill="none" xmlns="http://www.w3.org/2000/svg">
<path d="M26.5825 15.3057C26.4764 15.3063 26.3713 15.286 26.2732 15.2459C26.1751 15.2058 26.0858 15.1467 26.0105 15.0721L14.4991 3.55262L2.98774 15.0721C2.83363 15.204 2.63541 15.273 2.43267 15.2652C2.22993 15.2573 2.03761 15.1733 1.89415 15.0298C1.75068 14.8864 1.66663 14.694 1.6588 14.4913C1.65097 14.2886 1.71993 14.0903 1.8519 13.9362L13.9352 1.8529C14.0862 1.70287 14.2903 1.61865 14.5032 1.61865C14.716 1.61865 14.9201 1.70287 15.0711 1.8529L27.1544 13.9362C27.2653 14.0493 27.3403 14.1926 27.3702 14.3481C27.4001 14.5036 27.3835 14.6645 27.3225 14.8106C27.2614 14.9567 27.1587 15.0816 27.0271 15.1697C26.8955 15.2577 26.7408 15.305 26.5825 15.3057Z" fill="#242424"/>
<path d="M14.5007 6.27539L4.83398 15.9743V25.7779C4.83398 26.2052 5.00373 26.615 5.30587 26.9171C5.60801 27.2193 6.0178 27.389 6.4451 27.389H12.084V19.3334H16.9173V27.389H22.5562C22.9835 27.389 23.3933 27.2193 23.6954 26.9171C23.9976 26.615 24.1673 26.2052 24.1673 25.7779V15.9179L14.5007 6.27539Z" fill="#242424"/>
</svg>
