<svg width="29" height="29" viewBox="0 0 29 29" fill="none" xmlns="http://www.w3.org/2000/svg">
<path d="M2.01367 6.84723H26.9859V22.1528H2.01367V6.84723Z" fill="#5C9E31"/>
<path d="M2.01367 6.84723H26.9859V12.0833H2.01367V6.84723Z" fill="#E27022"/>
<path d="M2.01367 12.0833H26.9859V16.9167H2.01367V12.0833Z" fill="white"/>
<path d="M14.619 14.0553L15.3053 13.1048L14.8252 14.1746L15.895 13.6944L14.9444 14.3808L16.1109 14.5L14.9444 14.6192L15.895 15.3056L14.8252 14.8254L15.3053 15.8952L14.619 14.9447L14.4998 16.1111L14.3806 14.9447L13.6942 15.8952L14.1743 14.8254L13.1046 15.3056L14.0551 14.6192L12.8887 14.5L14.0551 14.3808L13.1046 13.6944L14.1743 14.1746L13.6942 13.1048L14.3806 14.0553L14.4998 12.8889L14.619 14.0553Z" stroke="#1E50A0" stroke-width="0.25" stroke-linecap="round" stroke-linejoin="round"/>
<path d="M14.5002 16.5139C15.6125 16.5139 16.5141 15.6122 16.5141 14.5C16.5141 13.3878 15.6125 12.4861 14.5002 12.4861C13.388 12.4861 12.4863 13.3878 12.4863 14.5C12.4863 15.6122 13.388 16.5139 14.5002 16.5139Z" stroke="#1E50A0" stroke-width="0.25" stroke-linecap="round" stroke-linejoin="round"/>
<path d="M2.01367 6.84723H26.9859V22.1528H2.01367V6.84723Z" stroke="black" stroke-width="0.5" stroke-linecap="round" stroke-linejoin="round"/>
</svg>
