<svg width="29" height="30" viewBox="0 0 29 30" fill="none" xmlns="http://www.w3.org/2000/svg">
<rect y="0.5" width="29" height="29" rx="8" fill="white"/>
<path d="M25.9189 14.0658H24.2393C24.0198 11.7816 23.0123 9.64485 21.3897 8.02218C19.767 6.39952 17.6303 5.39202 15.346 5.1725V3.49292C15.346 3.25257 15.2505 3.02206 15.0806 2.8521C14.9106 2.68215 14.6801 2.58667 14.4397 2.58667C14.1994 2.58667 13.9689 2.68215 13.7989 2.8521C13.629 3.02206 13.5335 3.25257 13.5335 3.49292V5.1725C11.2592 5.403 9.13541 6.4156 7.52454 8.03749C5.91366 9.65938 4.91556 11.79 4.70058 14.0658H3.021C2.90199 14.0658 2.78414 14.0893 2.67419 14.1348C2.56424 14.1804 2.46433 14.2471 2.38018 14.3313C2.29603 14.4154 2.22927 14.5153 2.18373 14.6253C2.13819 14.7352 2.11475 14.8531 2.11475 14.9721C2.11475 15.0911 2.13819 15.2089 2.18373 15.3189C2.22927 15.4288 2.29603 15.5287 2.38018 15.6129C2.46433 15.6971 2.56424 15.7638 2.67419 15.8094C2.78414 15.8549 2.90199 15.8783 3.021 15.8783H4.70058C4.9201 18.1626 5.92759 20.2993 7.55026 21.922C9.17292 23.5447 11.3096 24.5522 13.5939 24.7717V26.4513C13.5939 26.6916 13.6894 26.9221 13.8593 27.0921C14.0293 27.262 14.2598 27.3575 14.5002 27.3575C14.7405 27.3575 14.971 27.262 15.141 27.0921C15.3109 26.9221 15.4064 26.6916 15.4064 26.4513V24.7717C17.6899 24.5499 19.8253 23.5417 21.4475 21.9195C23.0698 20.2972 24.078 18.1618 24.2997 15.8783H25.9793C26.0983 15.8783 26.2162 15.8549 26.3261 15.8094C26.4361 15.7638 26.536 15.6971 26.6201 15.6129C26.7043 15.5287 26.7711 15.4288 26.8166 15.3189C26.8621 15.2089 26.8856 15.0911 26.8856 14.9721C26.8856 14.8531 26.8621 14.7352 26.8166 14.6253C26.7711 14.5153 26.7043 14.4154 26.6201 14.3313C26.536 14.2471 26.4361 14.1804 26.3261 14.1348C26.2162 14.0893 26.0983 14.0658 25.9793 14.0658H25.9189ZM14.4397 22.9954C12.8529 22.9954 11.3017 22.5249 9.98222 21.6432C8.66279 20.7616 7.63442 19.5086 7.02715 18.0425C6.41989 16.5764 6.261 14.9632 6.57058 13.4068C6.88016 11.8504 7.64431 10.4208 8.76639 9.29873C9.88848 8.17665 11.3181 7.4125 12.8745 7.10292C14.4308 6.79334 16.0441 6.95223 17.5101 7.55949C18.9762 8.16676 20.2293 9.19513 21.1109 10.5146C21.9925 11.834 22.4631 13.3852 22.4631 14.9721C22.4631 17.1011 21.6182 19.1431 20.1138 20.6497C18.6095 22.1563 16.5688 23.0043 14.4397 23.0075V22.9954Z" fill="#FB818C"/>
<path d="M19.9136 14.9844C19.9136 16.0699 19.5915 17.131 18.9882 18.0334C18.3849 18.9358 17.5274 19.6389 16.5243 20.0538C15.5212 20.4686 14.4175 20.5766 13.353 20.3639C12.2886 20.1513 11.3111 19.6276 10.5444 18.8592C9.77766 18.0907 9.25614 17.1121 9.04584 16.0472C8.83553 14.9822 8.94589 13.8788 9.36296 12.8767C9.78002 11.8745 10.485 11.0185 11.3888 10.4172C12.2925 9.81586 13.3543 9.49616 14.4398 9.49855C15.1597 9.49855 15.8724 9.64053 16.5373 9.91637C17.2022 10.1922 17.8062 10.5965 18.3146 11.106C18.8231 11.6156 19.226 12.2205 19.5004 12.886C19.7747 13.5515 19.9152 14.2645 19.9136 14.9844Z" fill="#FB818C"/>
</svg>
