<svg width="19" height="19" viewBox="0 0 19 19" fill="none" xmlns="http://www.w3.org/2000/svg">
<path d="M3.95833 3.95833H8.70833C9.14375 3.95833 9.5 3.60208 9.5 3.16667C9.5 2.73125 9.14375 2.375 8.70833 2.375H3.95833C3.0875 2.375 2.375 3.0875 2.375 3.95833V15.0417C2.375 15.9125 3.0875 16.625 3.95833 16.625H8.70833C9.14375 16.625 9.5 16.2688 9.5 15.8333C9.5 15.3979 9.14375 15.0417 8.70833 15.0417H3.95833V3.95833Z" fill="black"/>
<path d="M16.3479 9.22289L14.1392 7.01414C14.0841 6.95757 14.0134 6.91873 13.9362 6.90257C13.8589 6.88641 13.7786 6.89367 13.7054 6.92342C13.6323 6.95318 13.5698 7.00407 13.5257 7.0696C13.4817 7.13512 13.4582 7.21228 13.4583 7.29122V8.7083H7.91667C7.48125 8.7083 7.125 9.06455 7.125 9.49997C7.125 9.93539 7.48125 10.2916 7.91667 10.2916H13.4583V11.7087C13.4583 12.065 13.8858 12.2391 14.1313 11.9858L16.34 9.77705C16.4983 9.62664 16.4983 9.3733 16.3479 9.22289Z" fill="black"/>
</svg>
