<svg width="19" height="19" viewBox="0 0 19 19" fill="none" xmlns="http://www.w3.org/2000/svg">
<path d="M15.0417 15.8333H3.95833C3.53841 15.8333 3.13568 15.6665 2.83875 15.3695C2.54181 15.0726 2.375 14.6699 2.375 14.25V7.12496C2.375 6.70503 2.54181 6.30231 2.83875 6.00537C3.13568 5.70844 3.53841 5.54163 3.95833 5.54163H15.0417C15.4616 5.54163 15.8643 5.70844 16.1613 6.00537C16.4582 6.30231 16.625 6.70503 16.625 7.12496V14.25C16.625 14.6699 16.4582 15.0726 16.1613 15.3695C15.8643 15.6665 15.4616 15.8333 15.0417 15.8333Z" stroke="black" stroke-width="1.5"/>
<path d="M13.0618 11.0833C12.9569 11.0833 12.8562 11.0416 12.782 10.9674C12.7077 10.8931 12.666 10.7924 12.666 10.6875C12.666 10.5825 12.7077 10.4818 12.782 10.4076C12.8562 10.3333 12.9569 10.2916 13.0618 10.2916C13.1668 10.2916 13.2675 10.3333 13.3417 10.4076C13.416 10.4818 13.4577 10.5825 13.4577 10.6875C13.4577 10.7924 13.416 10.8931 13.3417 10.9674C13.2675 11.0416 13.1668 11.0833 13.0618 11.0833Z" fill="black" stroke="black" stroke-width="1.5" stroke-linecap="round" stroke-linejoin="round"/>
<path d="M14.25 5.54163V4.43568C14.2499 4.19303 14.1941 3.95365 14.0868 3.73601C13.9795 3.51838 13.8236 3.32831 13.6312 3.1805C13.4388 3.03268 13.215 2.93107 12.977 2.8835C12.7391 2.83594 12.4934 2.8437 12.259 2.90618L3.55063 5.22813C3.21342 5.318 2.91534 5.51674 2.70274 5.79348C2.49014 6.07022 2.37492 6.40945 2.375 6.75843V7.12497" stroke="black" stroke-width="1.5"/>
</svg>
