<svg width="30" height="29" viewBox="0 0 30 29" fill="none" xmlns="http://www.w3.org/2000/svg">
<rect x="0.012207" width="29" height="29" rx="8" fill="white"/>
<path fill-rule="evenodd" clip-rule="evenodd" d="M9.01221 8.5C9.01221 7.96957 9.22292 7.46086 9.59799 7.08579C9.97307 6.71071 10.4818 6.5 11.0122 6.5H19.0122C19.5426 6.5 20.0513 6.71071 20.4264 7.08579C20.8015 7.46086 21.0122 7.96957 21.0122 8.5V20.5C21.2774 20.5 21.5318 20.6054 21.7193 20.7929C21.9069 20.9804 22.0122 21.2348 22.0122 21.5C22.0122 21.7652 21.9069 22.0196 21.7193 22.2071C21.5318 22.3946 21.2774 22.5 21.0122 22.5H18.0122C17.747 22.5 17.4926 22.3946 17.3051 22.2071C17.1176 22.0196 17.0122 21.7652 17.0122 21.5V19.5C17.0122 19.2348 16.9068 18.9804 16.7193 18.7929C16.5318 18.6054 16.2774 18.5 16.0122 18.5H14.0122C13.747 18.5 13.4926 18.6054 13.3051 18.7929C13.1176 18.9804 13.0122 19.2348 13.0122 19.5V21.5C13.0122 21.7652 12.9068 22.0196 12.7193 22.2071C12.5318 22.3946 12.2774 22.5 12.0122 22.5H9.01221C8.74699 22.5 8.49264 22.3946 8.3051 22.2071C8.11756 22.0196 8.01221 21.7652 8.01221 21.5C8.01221 21.2348 8.11756 20.9804 8.3051 20.7929C8.49264 20.6054 8.74699 20.5 9.01221 20.5V8.5ZM12.0122 9.5H14.0122V11.5H12.0122V9.5ZM14.0122 13.5H12.0122V15.5H14.0122V13.5ZM16.0122 9.5H18.0122V11.5H16.0122V9.5ZM18.0122 13.5H16.0122V15.5H18.0122V13.5Z" fill="black"/>
</svg>
