<svg width="22" height="27" viewBox="0 0 22 27" fill="none" xmlns="http://www.w3.org/2000/svg">
<path d="M5.75 7.75H6.5V7V5.7C6.5 4.52212 6.97234 3.39101 7.81548 2.55591C8.65885 1.72056 9.80422 1.25 11 1.25C12.1958 1.25 13.3412 1.72056 14.1845 2.55591C15.0277 3.39101 15.5 4.52212 15.5 5.7V7V7.75H16.25H20.1875C20.2795 7.75 20.3659 7.77163 20.4422 7.81H19.925H16.25H15.5V8.56V11.45H15.425V8.56V7.81H14.675H7.325H6.575V8.56V11.45H6.5V8.56V7.81H5.75H2.075H1.55679C1.63317 7.7716 1.71995 7.75 1.8125 7.75H5.75ZM20.675 8.56V8.02925C20.7228 8.1116 20.75 8.20721 20.75 8.3091V23.9104C20.75 24.9182 19.9191 25.75 18.8829 25.75H3.11713C2.61996 25.75 2.14455 25.5544 1.79498 25.2086C1.44574 24.863 1.25058 24.3958 1.25 23.91V8.3104C1.25 8.20747 1.27719 8.11124 1.325 8.02857V8.56V23.9104C1.325 24.8994 2.13606 25.69 3.11713 25.69H18.8829C19.3551 25.69 19.8095 25.5046 20.146 25.1721C20.4827 24.8394 20.6738 24.3865 20.675 23.9123V23.9104V8.56ZM6.575 7V7.75H7.325H14.675H15.425V7V5.7C15.425 4.53337 14.957 3.41599 14.1264 2.59327C13.296 1.77079 12.1713 1.31 11 1.31C9.82872 1.31 8.70398 1.77079 7.8736 2.59327C7.04296 3.41599 6.575 4.53337 6.575 5.7V7Z" fill="#999999" stroke="#999999" stroke-width="1.5"/>
</svg>
