<svg width="22" height="21" viewBox="0 0 22 21" fill="none" xmlns="http://www.w3.org/2000/svg">
<path d="M10.0748 18.3188L10.0733 18.3175C7.22104 15.7547 4.93459 13.6952 3.34952 11.7737C1.77516 9.86525 1 8.21727 1 6.49455C1 3.68883 3.20439 1.5 6.05 1.5C7.6651 1.5 9.22925 2.25012 10.2441 3.42176L11 4.29437L11.7559 3.42176C12.7707 2.25012 14.3349 1.5 15.95 1.5C18.7956 1.5 21 3.68883 21 6.49455C21 8.21727 20.2248 9.86525 18.6505 11.7737C17.0654 13.6952 14.779 15.7547 11.9267 18.3175L11.9252 18.3188L11 19.1533L10.0748 18.3188Z" stroke="black" stroke-width="2"/>
</svg>
