<svg width="24" height="25" viewBox="0 0 24 25" fill="none" xmlns="http://www.w3.org/2000/svg">
<path d="M18.875 9.75C21.1532 9.75 23 7.90317 23 5.625C23 3.34683 21.1532 1.5 18.875 1.5C16.5968 1.5 14.75 3.34683 14.75 5.625C14.75 7.90317 16.5968 9.75 18.875 9.75Z" stroke="#999999" stroke-width="1.5" stroke-linecap="round" stroke-linejoin="round"/>
<path d="M5.125 23.5C7.40317 23.5 9.25 21.6532 9.25 19.375C9.25 17.0968 7.40317 15.25 5.125 15.25C2.84683 15.25 1 17.0968 1 19.375C1 21.6532 2.84683 23.5 5.125 23.5Z" stroke="#999999" stroke-width="1.5" stroke-linecap="round" stroke-linejoin="round"/>
<path d="M14.75 15.25H23V22.125C23 22.4897 22.8551 22.8394 22.5973 23.0973C22.3394 23.3551 21.9897 23.5 21.625 23.5H16.125C15.7603 23.5 15.4106 23.3551 15.1527 23.0973C14.8949 22.8394 14.75 22.4897 14.75 22.125V15.25ZM1 1.5H9.25V8.375C9.25 8.73967 9.10513 9.08941 8.84727 9.34727C8.58941 9.60513 8.23967 9.75 7.875 9.75H2.375C2.01033 9.75 1.66059 9.60513 1.40273 9.34727C1.14487 9.08941 1 8.73967 1 8.375V1.5Z" stroke="#999999" stroke-width="1.5" stroke-linecap="round" stroke-linejoin="round"/>
</svg>
